<svg width="334" height="334" viewBox="0 0 334 334" fill="none" xmlns="http://www.w3.org/2000/svg">
<g id="facebook">
<g id="g52">
<g id="g58">
<path id="path60" d="M252.163 0C260.297 0 266.893 6.596 266.893 14.73V252.164C266.893 260.301 260.297 266.895 252.163 266.895H14.73C6.593 266.895 5.61523e-06 260.301 5.61523e-06 252.164V14.73C5.61523e-06 6.596 6.593 0 14.73 0L252.163 0Z" transform="translate(0 333.619) scale(1.25 -1.25)" fill="white"/>
</g>
<g id="g62">
<path id="path64" d="M76.376 0V103.355H111.069L116.263 143.635H76.376V169.352C76.376 181.014 79.614 188.961 96.338 188.961L117.668 188.971V224.997C113.978 225.487 101.317 226.584 86.587 226.584C55.834 226.584 34.781 207.813 34.781 173.34V143.635H5.49316e-07V103.355H34.781V0H76.376Z" transform="translate(134.719 333.619) scale(1.25 -1.25)" fill="#9FB1BC"/>
</g>
</g>
</g>
</svg>
