<svg width="64" height="64" viewBox="0 0 64 64" fill="none" xmlns="http://www.w3.org/2000/svg">
<g id="facebook_footer">
<g id="g52">
<g id="g58">
<path id="path60" d="M48.3742 0C49.9346 0 51.2 1.26535 51.2 2.82574V48.3741C51.2 49.935 49.9346 51.2 48.3742 51.2H2.82576C1.26478 51.2 1.07721e-06 49.935 1.07721e-06 48.3741V2.82574C1.07721e-06 1.26535 1.26478 0 2.82576 0L48.3742 0Z" transform="translate(0 64) scale(1.25 -1.25)" fill="white"/>
</g>
<g id="g62">
<path id="path64" d="M14.6518 0V19.8272H21.3072L22.3036 27.5543H14.6518V32.4878C14.6518 34.725 15.2729 36.2495 18.4812 36.2495L22.5731 36.2514V43.1625C21.8652 43.2565 19.4364 43.4669 16.6106 43.4669C10.711 43.4669 6.67229 39.866 6.67229 33.2528V27.5543H1.05379e-07V19.8272H6.67229V0H14.6518Z" transform="translate(25.8441 64) scale(1.25 -1.25)" fill="#9FB1BC"/>
</g>
</g>
</g>
</svg>
