<svg width="476" height="807" viewBox="0 0 476 807" fill="none" xmlns="http://www.w3.org/2000/svg">
<path fill-rule="evenodd" clip-rule="evenodd" d="M186.989 451.106C193.254 442.618 199.591 434.182 205.769 425.632C221.206 404.269 236.572 382.855 251.964 361.459C255.182 356.983 258.39 352.501 262.372 346.947C287.631 431.658 312.636 515.52 337.844 600.061C330.954 602.309 323.964 604.654 316.934 606.872C286.531 616.464 256.123 626.045 225.703 635.579C202.846 642.743 179.951 649.79 157.096 656.96C128.069 666.065 99.062 675.233 70.052 684.393C47.523 691.505 25.005 698.652 2.471 705.75C1.707 705.99 0.828 705.865 0.00200003 705.911C0.00200003 702.911 0.00200003 699.911 0.00200003 696.912C5.662 695.42 11.391 694.147 16.97 692.399C45.878 683.339 74.734 674.112 103.637 665.036C126.64 657.812 149.699 650.765 172.709 643.564C203.18 634.031 233.636 624.45 264.084 614.841C283.29 608.78 302.469 602.634 322.995 596.102C313.71 593.851 305.738 591.771 297.699 589.998C272.553 584.457 247.358 579.131 222.225 573.532C201.078 568.821 180.017 563.721 158.849 559.11C155.211 558.317 150.692 557.926 147.489 559.368C127.655 568.301 108.08 577.809 88.42 587.131C80.172 591.04 71.928 594.959 63.777 598.828C54.103 587.6 44.534 576.525 35.001 565.419C29.541 559.06 24.247 552.555 18.685 546.286C12.572 539.401 6.238 532.71 0.000999987 525.934C0.000999987 420.614 0.000999987 315.293 0.000999987 209.973C3.018 215.077 6.719 219.908 8.885 225.349C11.896 232.91 16.194 236.086 24.681 235.183C33.623 234.232 42.746 234.97 52.133 234.97C51.748 233.806 51.654 233.339 51.449 232.929C35.204 200.366 18.96 167.803 2.662 135.265C2.046 134.036 0.9 133.071 0 131.982C0 128.649 0 125.316 0 121.983C1.017 123.398 2.247 124.705 3.019 126.242C20.218 160.488 37.369 194.758 54.522 229.026C57.902 235.779 57.889 235.786 65.98 234.373C65.709 233.747 65.49 233.17 65.215 232.62C44.287 190.703 23.362 148.785 2.392 106.889C1.845 105.797 0.809 104.948 0 103.985C0 100.985 0 97.986 0 94.986C0.703 95.815 1.582 96.55 2.08 97.487C6.112 105.083 10.175 112.666 14.038 120.347C32.654 157.364 51.192 194.42 69.858 231.411C70.588 232.86 72.317 234.778 73.624 234.811C84.533 235.083 95.45 234.965 107.038 234.965C96.575 219.909 86.584 205.36 76.414 190.936C57.88 164.648 39.278 138.407 20.624 112.205C13.868 102.717 6.882 93.39 0.000999987 83.989C0.000999987 81.656 0.000999987 79.323 0.000999987 76.99C1.223 78.079 2.71 78.982 3.628 80.285C16.793 98.983 29.823 117.777 43.001 136.465C64.755 167.316 86.618 198.089 108.375 228.937C113.078 235.605 113.145 235.766 121.615 234.387C121.02 233.334 120.549 232.305 119.908 231.395C103.159 207.615 86.369 183.863 69.635 160.072C49.238 131.073 28.918 102.021 8.469 73.059C5.948 69.49 2.838 66.337 0.000999987 62.992C0.000999987 60.325 0.000999987 57.659 0.000999987 54.993C0.885 55.711 1.99 56.274 2.619 57.17C13.445 72.585 24.162 88.077 35.003 103.482C52.586 128.464 70.261 153.382 87.858 178.355C100.4 196.151 112.839 214.018 125.458 231.758C126.485 233.202 128.472 234.678 130.128 234.822C134.845 235.235 139.622 234.968 145.142 234.968C136.23 222.463 127.698 210.639 119.319 198.706C100.555 171.982 81.819 145.238 63.161 118.439C45.347 92.851 27.685 67.157 9.861 41.577C6.819 37.211 3.299 33.181 0 28.995C0 26.328 0 23.663 0 20.996C0.407 21.261 0.944 21.434 1.201 21.802C18.786 46.994 36.315 72.226 53.923 97.403C74.254 126.471 94.641 155.5 115.028 184.529C123.861 197.107 132.803 209.609 141.601 222.212C145.275 227.473 148.702 232.906 152.716 238.979C106.603 238.979 61.668 238.979 16.715 238.979C18.187 245.854 22.28 247.197 28.808 247.147C73.466 246.808 118.128 246.969 162.788 246.969C164.471 246.969 166.152 246.969 168.864 246.969C162.517 238.198 156.853 230.608 151.437 222.846C127.023 187.863 102.73 152.797 78.296 117.829C57.884 88.617 37.358 59.484 16.837 30.349C11.312 22.504 5.617 14.78 0.000999987 6.999C0.000999987 4.666 0.000999987 2.332 0.000999987 0C1.306 1.225 2.846 2.279 3.877 3.702C8.544 10.144 13.094 16.674 17.64 23.204C37.406 51.599 57.09 80.051 76.93 108.395C96.785 136.763 116.802 165.017 136.724 193.338C146.073 206.63 155.403 219.937 164.672 233.285C168.586 238.922 172.317 244.686 176.739 251.305C163.745 251.305 151.914 251.305 139.486 251.305C152.701 270.062 165.45 288.158 178.763 307.054C154.592 307.054 131.578 307.054 108.083 307.054C114.94 320.852 121.548 334.146 128.396 347.925C109.553 347.925 91.586 347.925 73.182 347.925C74.063 349.83 74.741 351.461 75.552 353.023C84.247 369.76 92.952 386.493 101.68 403.214C107.757 414.857 113.875 426.477 119.973 438.108C120.902 440.202 121.726 442.349 122.776 444.379C130.949 460.184 139.146 475.977 147.388 491.745C148.815 494.474 150.489 497.073 152.251 500.078C158.448 491.48 164.353 483.392 170.146 475.224C175.821 467.227 181.38 459.149 186.989 451.106ZM79.564 250.974C84.36 260.659 89.578 269.378 93.064 278.741C96.566 288.151 102.116 291.594 111.862 290.099C116.908 289.326 122.17 289.963 127.335 289.963C133.377 289.963 139.417 289.963 145.904 289.963C136.925 277.062 128.414 264.788 119.81 252.579C119.25 251.785 117.977 251.05 117.03 251.042C104.773 250.94 92.517 250.974 79.564 250.974ZM45.478 293.962C48.732 302.962 48.732 302.962 57.099 302.962C92.883 302.962 128.666 302.962 164.45 302.962C166.196 302.962 167.941 302.962 169.7 302.962C169.7 302.044 169.83 301.637 169.681 301.426C160.102 287.812 150.451 274.249 140.918 260.603C133.621 250.16 133.519 250.021 124.406 251.578C134.246 265.575 144.032 279.493 154.206 293.963C117.42 293.962 81.642 293.962 45.478 293.962ZM22.469 250.969C29.194 264.003 35.475 276.243 41.871 288.422C42.267 289.177 43.559 289.889 44.439 289.896C56.189 289.994 67.938 289.961 80.388 289.961C73.996 277.008 67.953 264.65 61.725 252.387C61.302 251.554 59.497 251.039 58.33 251.028C46.703 250.93 35.074 250.969 22.469 250.969ZM51.45 306.963C55.83 315.275 59.711 322.722 63.71 330.104C64.148 330.912 65.269 331.868 66.082 331.875C77.629 331.99 89.178 331.953 101.41 331.953C97.346 323.726 93.69 316.164 89.825 308.711C89.364 307.824 87.763 307.049 86.682 307.037C75.239 306.918 63.795 306.963 51.45 306.963ZM94.359 307.549C98.958 316.866 103.534 326.143 108.462 336.125C94.07 336.125 80.682 336.125 66.683 336.125C68.147 339.111 69.334 341.528 70.319 343.536C87.476 343.536 104.126 343.536 121.241 343.536C116.172 333.362 111.108 323.829 106.656 314.018C104.177 308.555 101.292 305.045 94.359 307.549ZM65.709 251.314C71.409 262.775 76.86 273.746 82.321 284.709C85.309 290.706 87.054 291.355 93.989 288.965C88.775 278.557 83.575 268.169 78.368 257.785C74.728 250.527 74.723 250.53 65.709 251.314Z" transform="translate(0 100.983)" fill="#322882"/>
<path fill-rule="evenodd" clip-rule="evenodd" d="M162.301 552.089C156.692 560.132 151.133 568.21 145.459 576.208C139.666 584.376 133.761 592.464 127.564 601.062C125.802 598.057 124.128 595.458 122.701 592.729C114.459 576.96 106.262 561.167 98.089 545.363C97.039 543.333 96.214 541.185 95.286 539.092C98.545 532.624 101.065 525.62 105.258 519.828C110.078 513.173 113.345 506.29 115.519 498.371C118.493 487.534 121.285 476.194 126.838 466.626C134.964 452.625 140.508 437.699 146.968 423.059C150.08 416.007 154.287 408.862 159.755 403.575C166.619 396.94 175.637 392.596 183.065 386.464C189.519 381.134 195.556 375.099 200.835 368.609C204.975 363.519 208.318 357.523 210.837 351.442C213.561 344.865 214.773 337.677 216.916 330.84C218.733 325.044 218.474 319.771 215.494 314.264C212.865 309.406 210.994 304.084 209.248 298.815C204.119 283.352 201.967 267.331 200.136 251.188C198.812 239.521 194.883 228.284 187.197 219.286C181.034 212.071 173.422 206.081 166.314 199.703C165.557 199.024 163.59 198.855 162.663 199.349C158.252 201.703 153.814 201.906 148.94 201.065C141.82 199.837 135.694 196.912 131.465 191.15C125.487 183.004 120.121 174.412 114.306 166.141C112.695 163.849 110.456 161.988 108.442 159.994C107.138 158.702 105.719 157.526 104.353 156.299C106.128 155.192 107.899 153.149 109.679 153.14C117.502 153.104 121.517 158.56 123.685 165.03C126.731 174.122 132.033 181.125 139.597 186.919C147.009 192.594 157.014 194.455 163.051 190.453C162.119 187.517 160.933 184.648 160.337 181.66C159.699 178.458 159.389 175.149 159.335 171.88C159.198 163.813 158.701 162.653 150.858 160.316C145.217 158.634 142.027 154.915 140.225 149.711C139.053 146.329 138.298 142.805 137.241 139.378C135.551 133.9 134.195 128.372 128.302 125.314C125.268 123.739 122.438 121.239 120.338 118.522C117.238 114.515 114.147 111.161 108.945 109.731C103.184 108.149 97.672 105.656 91.546 103.371C90.263 104.343 88.445 105.736 86.611 107.106C81.462 110.952 77.405 111.15 72.85 106.868C68.839 103.098 64.181 101.246 59.035 99.893C56.597 99.252 54.392 97.727 52.082 96.603C59.357 94.069 65.669 95.914 71.452 98.846C78.795 102.57 81.615 102.681 87.004 98.201C86.039 91.448 84.782 85.381 84.432 79.263C84.187 74.956 82.942 71.793 78.891 70.278C72.757 67.983 67.29 64.98 63.768 59.106C63.122 58.028 61.329 56.954 60.122 57.014C55.185 57.265 50.246 57.795 45.353 58.53C40.329 59.285 35.641 59.539 31.423 55.793C29.829 54.376 27.435 53.816 25.355 52.996C19.031 50.503 13.265 53.786 7.283 54.826C6.95 54.174 6.617 53.52 6.283 52.867C14.944 46.645 23.653 46.626 32.978 51.768C36.071 53.475 40.215 53.791 43.881 53.798C47.584 53.805 51.485 53.171 54.954 51.886C64.565 48.328 69.426 55.109 75.092 60.425C77.369 62.562 79.794 64.54 82.152 66.59C82.693 66.325 83.233 66.06 83.773 65.795C83.773 64.188 84.003 62.541 83.733 60.981C82.66 54.788 81.771 48.531 80.169 42.47C78.347 35.578 75.832 28.625 68.009 26.414C62.239 24.783 56.238 23.718 50.268 23.132C45.548 22.668 41.846 20.847 38.519 17.724C32.955 12.502 26.467 9.608 18.762 11.09C15.118 11.79 11.707 13.63 8.087 14.545C5.48 15.204 2.702 15.19 0 15.475C8.919 8.046 18.512 5.576 29.047 7.106C33.646 7.774 38.013 8.863 42.032 11.936C45.334 14.461 49.771 15.74 53.897 16.887C57.96 18.018 62.304 18.093 66.45 18.978C73.117 20.4 74.574 19.595 76.307 12.779C77.699 7.305 81.173 4.827 86.948 3.851C89.54 3.413 91.856 1.333 94.297 0C95.63 0 96.964 0 98.297 0C96.605 3.551 94.315 6.093 90.124 7.095C80.361 9.429 77.154 24.371 82.063 31.474C86.562 37.983 89.31 45.323 89.425 53.653C89.562 63.526 90.406 73.41 91.388 83.246C92.426 93.641 99.626 98.696 108.656 102.024C112.922 103.596 117.199 105.314 121.117 107.578C122.928 108.624 124.446 110.959 125.116 113.028C126.477 117.229 128.562 120.148 133.056 121.408C141.983 123.908 143.955 131.46 145.262 139.254C146.662 147.61 149.78 150.93 159.29 152.986C159.29 148.799 159.694 144.709 159.197 140.731C158.419 134.504 161.077 129.873 165.095 125.723C167.629 123.107 168.777 120.377 168.418 116.532C167.92 111.212 169.016 105.694 168.155 100.47C166.644 91.293 161.035 86.364 151.657 85.002C146.824 84.3 143.232 81.603 140.938 77.856C137.354 71.999 132.71 68.841 125.826 68.881C125.024 68.886 124.218 67.981 123.277 67.414C130.283 63.782 139.262 65.753 143.152 71.629C147.029 77.487 151.548 82.002 160.308 79.363C157.103 74.827 153.821 70.445 150.878 65.845C150.033 64.524 149.584 62.43 149.953 60.938C152.308 51.413 151.733 50.038 142.808 45.735C142.182 45.432 141.787 44.652 140.962 43.736C146.545 41.888 149.79 44.837 153.051 48.118C155.205 46.489 158.639 45.205 159.03 43.299C159.673 40.168 159.012 36.323 157.646 33.359C156.354 30.556 153.445 28.498 151.248 26.113C151.273 25.367 151.299 24.621 151.325 23.876C163.201 29.125 169.588 37.073 160.133 49.645C158.462 51.867 156.798 54.133 155.463 56.561C153.73 59.716 153.606 62.162 157.274 64.877C161.464 67.979 164.135 72.583 164.452 78.368C164.59 80.894 165.962 83.799 167.685 85.711C173.818 92.516 176.946 99.866 174.466 109.168C173.787 111.715 174.363 114.598 174.363 118.627C176.966 116.877 178.563 116.127 179.747 114.959C190.129 104.727 202.713 98.201 216.148 93.066C217.825 92.425 219.669 91.982 221.088 90.964C223.93 88.925 226.152 86.79 223.773 82.558C222.581 80.437 223.057 77.306 223.018 74.628C222.972 71.454 223.23 68.278 223.272 65.102C223.315 61.901 223.677 58.628 223.151 55.515C222.069 49.111 220.761 42.716 219.013 36.466C217.859 32.343 215.703 28.508 214.162 24.482C213.841 23.641 214.252 22.521 214.325 21.529C215.287 21.843 216.45 21.924 217.157 22.534C217.986 23.249 218.631 24.352 218.987 25.41C221.784 33.721 224.565 42.039 227.166 50.413C227.64 51.936 227.203 53.726 227.286 55.388C227.62 62.109 227.993 68.827 228.364 75.794C229.043 75.417 229.29 75.359 229.309 75.258C231.168 65.497 237.936 60.666 246.743 57.879C248.743 57.246 250.858 56.851 252.717 55.934C255.099 54.759 257.275 53.167 259.54 51.756C259.843 51.181 260.142 50.606 260.441 50.031C260.681 49.672 260.921 49.312 261.161 48.953C261.573 48.978 261.984 49.005 262.396 49.031C262.37 50.647 262.343 52.263 262.316 53.879C262.42 54.858 262.525 55.838 262.63 56.818C259.151 58.522 255.805 61.273 252.165 61.74C239.529 63.368 233.115 70.754 231.491 82.693C230.229 91.978 224.428 96.569 216.345 99.499C211.972 101.084 207.73 103.028 202.074 105.371C206.204 107.693 209.111 109.343 212.032 110.966C218.473 114.543 219.702 117.752 217.395 125.028C216.652 125.028 215.908 125.028 215.165 125.028C214.351 119.025 212.156 113.709 205.684 112.319C202.074 111.543 197.054 110.837 194.541 112.669C187.168 118.038 180.184 124.206 174.13 131.021C170.275 135.359 168.959 140.972 170.78 147.708C173.11 156.322 173.304 165.527 174.252 174.495C174.757 179.277 176.501 182.895 180.358 186.231C185.414 190.604 189.428 196.171 193.992 201.131C195.289 202.542 196.937 203.632 199.551 205.805C198.624 200.641 197.349 196.895 197.45 193.185C197.554 189.386 198.158 185.112 200.063 181.964C202.948 177.195 201.674 173.792 198.812 169.984C196.104 166.38 193.655 162.582 191.803 157.881C192.954 158.402 194.365 158.662 195.203 159.497C197.06 161.346 198.281 164.005 200.379 165.411C208.764 171.032 207.516 178.466 205.178 186.466C204.537 188.66 204.943 191.216 205.144 193.581C205.308 195.525 206.465 197.528 206.173 199.342C204.821 207.714 208.074 214.705 212.154 221.549C216.6 229.005 217.752 236.654 216.613 245.575C215.147 257.071 218.351 268.258 224.029 278.648C225.844 281.971 226.229 286.074 227.281 289.816C227.677 291.221 228.109 292.616 228.524 294.016C229.224 294.072 229.924 294.128 230.625 294.185C231.753 289.957 232.817 285.712 234.022 281.506C236.129 274.152 237.946 266.682 240.599 259.527C242.909 253.297 244.675 247.398 243.494 240.516C242.708 235.942 244.055 231.028 244.225 226.257C244.387 221.73 244.515 217.175 244.191 212.666C243.828 207.609 243.038 202.574 242.262 197.555C240.914 188.834 239.708 180.077 237.887 171.451C237.104 167.744 233.843 164.654 235.254 160.312C237.362 153.819 238.791 147.038 241.588 140.868C242.847 138.09 246.414 135.787 249.455 134.515C254.95 132.215 256.127 127.176 257.784 122.697C260.316 115.85 262.757 108.782 263.751 101.601C264.972 92.789 271.679 87.538 275.436 80.435C275.906 79.548 277.227 79.039 278.241 78.526C285.34 74.939 292.615 71.663 299.497 67.704C302.143 66.183 303.913 63.135 306.082 60.782C306.575 61.116 307.069 61.451 307.564 61.785C305.751 64.649 303.937 67.513 301.961 70.633C308.127 69.362 314.178 68.116 320.23 66.871C320.256 67.616 320.282 68.362 320.307 69.108C310.154 72.316 300.021 75.59 289.841 78.712C282.833 80.86 277.847 84.7 274.066 91.451C270.415 97.969 267.302 104.133 267.84 112.202C274.052 108.25 280.184 104.588 286.005 100.485C287.58 99.375 288.276 96.961 289.264 95.086C290.777 92.211 292.729 90.049 296.303 90.155C296.958 90.567 297.613 90.979 298.267 91.39C295.919 93.615 293.571 95.84 290.554 98.697C293.567 98.943 295.319 99.087 298.331 99.332C296.321 100.645 295.387 101.345 294.373 101.903C287.512 105.683 280.653 109.469 273.754 113.182C268.199 116.17 264.735 121.035 263.034 126.759C260.726 134.523 255.397 139.435 249.23 143.869C248.193 144.456 247.156 145.042 246.118 145.628C246.544 146.093 246.969 146.557 247.394 147.022C248.032 146.716 248.669 146.41 249.308 146.104C255.542 144.619 261.75 143.012 268.023 141.71C270.507 141.195 273.133 141.359 275.694 141.213C276.202 141.768 276.709 142.324 277.216 142.88C270.355 145.58 263.701 149.407 256.584 150.72C245.367 152.79 239.564 161.153 244.185 171.473C249.755 183.916 252.455 196.927 253.323 210.46C254.062 221.987 255.192 233.489 256.226 245.935C260.847 239.798 265.548 233.916 269.837 227.748C273.38 222.657 276.464 217.245 279.686 211.935C280.355 210.833 280.727 209.552 281.248 208.356C282.78 204.834 284.523 201.387 285.805 197.776C287.767 192.248 289.496 186.634 291.165 181.009C293.157 174.297 295.269 167.599 296.763 160.772C297.533 157.255 297.78 153.311 297.004 149.841C295.839 144.634 295.461 140.184 300.192 136.523C306.073 131.974 308.309 126.089 308.578 118.451C308.798 112.206 309.648 105.218 315.8 100.829C316.836 100.09 317.257 98.349 317.738 96.992C320.476 89.252 323.145 81.487 325.896 73.568C329.89 79.67 325.642 85.86 323.809 92.087C324.175 92.343 324.54 92.599 324.907 92.855C327.719 91.11 330.529 89.366 333.606 87.456C335.671 90.684 333.341 92.763 330.828 94.686C327.313 97.373 323.414 99.639 320.235 102.669C315.585 107.1 313.132 112.537 313.089 119.333C313.058 124.222 311.378 129.102 310.434 133.984C310.051 134.981 309.669 135.979 309.287 136.976C309.666 137.15 310.045 137.324 310.424 137.497C311.076 136.34 311.73 135.182 312.383 134.024C317.483 129.71 322.615 125.434 327.673 121.07C331.342 117.903 335.661 117.677 340.153 118.027C340.56 118.027 340.967 118.027 341.374 118.027C343.963 117.661 346.583 117.445 349.133 116.898C355.247 115.587 356.916 108.337 352.42 102.703C351.49 101.539 350.387 100.495 349.268 99.502C344.753 95.498 343.471 90.479 344.804 82.985C347.413 90.152 348.919 96.742 356.007 98.834C362.162 89.721 361.459 81.509 351.158 74.375C357.217 74.249 363.267 79.694 363.138 84.421C363.02 88.791 361.942 93.137 361.249 97.487C360.612 101.496 360.001 105.511 359.237 109.496C358.595 112.851 357.848 116.194 356.931 119.482C356.695 120.331 355.733 121.46 354.952 121.597C349.977 122.472 344.937 122.974 339.968 123.872C337.471 124.323 334.676 124.796 332.719 126.223C327.94 129.708 323.908 134.284 318.962 137.463C309.667 143.439 307.515 152.992 305.357 162.55C304.109 168.072 303.703 173.784 302.841 179.955C303.864 179.66 305.214 179.628 306.084 178.966C314.599 172.487 324.569 170.603 334.82 168.805C342.625 167.435 350.458 165.044 357.647 161.736C363.005 159.27 367.355 154.611 372.154 150.93C372.628 151.479 373.101 152.028 373.575 152.576C372.304 154.618 371.034 156.659 369.89 158.498C373.451 158.498 377.034 158.498 382.178 158.498C380.574 160.055 379.716 161.614 378.547 161.897C373.482 163.124 368.32 163.954 363.203 164.98C361.284 165.364 359.371 165.809 357.495 166.361C345.485 169.895 333.484 173.454 321.495 177.053C320.797 177.263 320.224 177.893 320.102 177.977C329.125 177.977 338.511 177.732 347.873 178.11C351.152 178.243 354.384 179.867 357.611 180.89C360.685 181.866 363.662 183.228 366.794 183.914C371.47 184.939 375.341 186.53 377.446 191.389C379.849 196.932 382.859 202.21 385.5 207.654C386.032 208.751 386.1 210.074 386.381 211.294C385.951 211.658 385.522 212.022 385.091 212.386C383.827 211.261 382.166 210.36 381.366 208.967C378.378 203.761 376.24 197.955 372.625 193.266C370.772 190.863 366.543 190.133 363.258 189.032C359.448 187.757 355.494 186.914 351.609 185.862C350.686 185.612 349.785 185.016 348.877 185.022C333.569 185.123 318.208 184.124 303.366 189.704C299.427 191.185 298.312 193.418 297.198 196.879C292.938 210.09 288.192 223.107 279.506 234.255C273.763 241.628 267.502 248.715 262.723 256.68C259.732 261.661 259.039 268.028 257.435 273.806C257.373 274.03 258.559 274.599 259.164 275.008C259.57 275.007 259.977 275.007 260.384 275.008C265.471 274.66 270.586 274.546 275.633 273.904C281.285 273.185 286.957 272.293 292.449 270.835C294.393 270.318 295.873 267.953 297.487 266.354C297.927 265.917 297.984 265.113 298.391 264.621C304.009 257.835 310.025 251.339 315.18 244.22C319.091 238.821 322.489 232.873 325.037 226.722C327.029 221.915 322.984 215.73 317.423 212.557C314.985 211.167 312.738 209.442 310.404 207.87C310.79 207.178 311.175 206.486 311.56 205.793C316.091 208.201 320.622 210.608 325.154 213.016C325.561 213.016 325.968 213.016 326.376 213.016C326.964 212.326 327.552 211.637 328.141 210.947C328.793 211.281 329.446 211.614 330.097 211.947C330.163 214.472 329.631 217.201 330.411 219.482C332.412 225.32 330.683 230.042 327.203 234.587C326.364 235.681 325.872 237.043 325.917 239.177C328.91 237.749 331.857 236.215 334.909 234.923C337.571 233.796 340.283 232.594 343.095 232.06C346.099 231.49 347.715 230.183 348.297 227.149C349.083 223.045 350.182 219.002 351.147 214.932C351.893 214.957 352.639 214.983 353.384 215.008C353.384 218.141 353.384 221.275 353.384 224.841C361.063 223.447 362.03 230.327 365.939 233.632C365.556 234.167 365.173 234.703 364.792 235.238C362.598 233.634 360.323 232.129 358.229 230.405C354.681 227.482 353.497 227.881 351.617 231.998C350.763 233.869 349.183 236.052 347.406 236.746C340.31 239.515 332.976 241.67 325.807 244.266C324.411 244.771 323.018 246.007 322.206 247.277C319.065 252.198 316.159 257.27 312.766 262.956C323.014 262.956 332.24 262.561 341.412 263.094C347.534 263.449 350.961 259.443 354.369 256.068C359.749 250.742 365.773 246.825 372.588 243.791C376.199 242.184 378.296 233.398 376.602 228.723C375.326 225.201 374.291 221.59 373.15 218.019C373.537 217.634 373.923 217.25 374.31 216.867C380.096 223.249 382.87 237.85 378.744 244.573C377.235 247.031 373.635 248.674 370.648 249.656C364.444 251.699 359.993 255.593 357.252 261.238C354.397 267.122 349.718 268.791 343.675 269.032C332.467 269.479 321.245 270.019 310.091 271.139C306.501 271.5 302.765 273.288 299.689 275.321C290.959 281.09 281.183 283.415 271.114 284.943C260.229 286.596 255.062 289.309 254.426 303.284C254.045 311.638 251.628 319.277 249.458 327.178C247.263 335.167 247.194 343.73 245.141 351.772C242.446 362.329 238.08 372.22 229.83 379.96C220.505 388.709 211.554 397.861 202.097 406.46C198.581 409.656 194.093 411.784 190.048 414.4C190.239 414.873 190.43 415.345 190.621 415.818C191.679 415.582 192.868 415.579 193.775 415.071C201.352 410.829 209.628 410.511 218.049 409.734C229.198 408.706 240.133 407.003 248.628 397.531C255.021 390.402 263.29 384.874 271.061 379.084C280.195 372.278 286.303 358.209 283.074 347.429C280.714 339.55 282.033 332.944 286.947 326.897C292.172 320.466 293.315 313.749 290.865 305.756C289.709 301.981 290.668 297.558 291.603 292.734C292.544 294.298 293.919 295.754 294.344 297.448C295.531 302.18 296.518 306.983 297.226 311.809C298.288 319.049 295.924 325.343 291.715 331.245C289.041 334.996 287.222 339.099 290.084 343.957C291.26 345.955 291.176 348.694 291.691 351.228C296.958 347.532 302.248 343.541 307.819 339.991C312.995 336.692 317.295 329.923 324.998 334.802C327.757 331.991 331.27 329.584 333.056 326.25C334.74 323.105 334.36 318.92 335.324 315.309C336.845 309.603 339.117 304.256 345.517 301.478C344.235 305.014 342.843 308.516 341.705 312.098C341.021 314.251 340.614 316.513 340.289 318.755C339.514 324.107 338.859 329.477 338.105 335.234C342.63 334.855 348.241 334.63 353.767 333.825C356.744 333.391 359.324 331.935 359.315 328.011C359.303 322.422 362.468 318.992 368.869 316.384C367.326 320.845 365.616 324.156 365.075 327.648C363.385 338.558 356.76 341.491 346.783 340.044C344.935 339.776 342.923 340.607 340.988 340.951C336.281 341.789 331.835 341.536 327.012 340.396C323.59 339.586 319.024 341.622 315.549 343.477C309.648 346.627 304.158 350.566 298.58 354.302C293.259 357.867 291.849 363.664 291.428 369.369C290.97 375.573 288.491 380.44 284.174 384.493C276.337 391.853 268.336 399.038 260.426 406.32C259.733 406.96 259.201 407.774 258.181 409.004C264.552 407.078 270.194 404.986 276.017 403.744C279.995 402.896 284.223 403.187 288.343 403.057C291.545 402.956 294.783 403.27 297.952 402.917C313.464 401.188 328.764 400.44 343.469 407.496C352.251 411.709 353.96 410.405 359.887 402.985C368.366 392.369 377.638 382.388 386.561 372.126C393.473 364.177 400.453 356.227 404.047 346.11C404.711 344.241 404.298 341.591 403.486 339.681C401.89 335.927 399.304 332.584 397.789 328.806C395.621 323.4 394.607 317.48 392.055 312.296C389.706 307.527 386.549 302.825 382.699 299.214C378.209 295.005 376.421 291.003 378.163 284.94C379.946 278.732 380.854 272.274 382.145 265.926C382.888 265.926 383.632 265.926 384.374 265.926C384.637 269.633 386.186 273.864 384.925 276.948C380.998 286.556 384.213 293.513 390.896 300.239C395.628 305.003 398.811 310.376 399.768 317.747C400.482 323.248 405.287 328.243 408.532 333.294C408.645 333.472 412.223 332.273 413.068 330.983C416.49 325.758 415.287 319.96 415.022 314.079C414.663 306.1 410.045 301.302 405.074 296.111C399.913 290.726 398.039 284.224 401.424 276.968C402.074 276.953 402.724 276.94 403.373 276.925C403.667 278.128 404.514 279.528 404.166 280.503C401.518 287.934 406.376 291.235 411.636 294.518C412.143 293.309 412.643 292.116 413.142 290.924C413.888 290.949 414.634 290.975 415.38 291C416.297 294.552 416.524 298.492 418.256 301.59C425.078 313.789 423.388 326.115 417.715 337.528C411.185 350.665 404.07 363.617 393.607 374.446C389.523 378.674 387.44 384.804 384.269 389.959C382.584 392.697 380.72 395.381 378.576 397.765C375.999 400.632 373.035 403.153 370.291 405.773C380.675 411.477 389.726 406.86 399.153 404.771C403.664 403.772 408.753 405.12 413.538 405.737C415.418 405.98 417.12 407.468 419.009 407.815C431.246 410.06 436.396 418.893 439.012 429.69C439.944 433.534 441.424 436.281 444.817 438.274C450.429 441.571 448.715 447.373 447.967 451.799C446.982 457.64 448.721 462.216 451.253 466.944C451.253 469.277 451.253 471.61 451.253 473.943C450.129 472.663 448.628 471.554 447.95 470.072C445.703 465.156 444.675 464.795 440.304 468.05C439.916 467.667 439.529 467.284 439.141 466.902C440.079 462.782 441.111 458.68 441.929 454.537C442.821 450.019 442.122 445.818 438.934 441.994C435.687 452.503 421.663 462.141 412.12 458.187C412.644 457.704 413.015 457.054 413.435 457.02C419.57 456.518 423.59 452.094 428.099 448.803C429.86 447.518 430.55 444.633 431.485 442.376C433.704 437.019 433.71 431.907 429.305 427.48C429.072 427.246 428.68 427.005 428.659 426.744C427.995 418.621 421.038 417.336 415.452 414.627C409.1 411.547 403.053 412.849 397.05 415.932C391.989 418.531 386.864 419.738 381.065 417.467C373.786 414.618 366.812 415.985 359.696 419.422C356.455 420.987 351.842 420.107 347.905 419.748C340.605 419.083 333.367 417.661 326.061 417.169C319.713 416.742 313.306 417.067 306.932 417.273C305.301 417.326 303.039 417.72 302.269 418.809C301.546 419.83 301.961 422.222 302.693 423.565C303.613 425.253 305.167 426.78 306.787 427.87C317.521 435.089 325.344 444.803 332.631 455.395C336.792 461.442 343.544 465.674 348.965 470.895C360.12 481.633 373.45 479.224 386.429 476.666C395.036 474.969 403.473 473.28 412.162 475.035C414.481 475.504 416.795 476.701 418.765 478.064C424.157 481.793 429.234 485.984 434.681 489.625C439.708 492.985 442.036 496.682 440.533 503.201C439.238 508.813 439.795 514.852 439.532 520.702C438.889 520.796 438.246 520.89 437.601 520.983C436.823 518.187 435.821 515.43 435.322 512.585C434.727 509.195 435.133 505.532 434.037 502.357C433.118 499.697 431.056 497.054 428.794 495.329C425.744 493.004 422.02 491.566 418.588 489.749C418.04 494.338 417.482 499.014 416.923 503.689C416.391 503.861 415.859 504.033 415.326 504.205C414.642 502.126 413.817 500.081 413.303 497.96C412.191 493.371 411.227 488.746 410.222 484.132C409.674 481.62 408.16 480.486 405.619 480.954C400.317 481.932 395.047 483.086 389.728 483.951C381.801 485.24 373.843 486.342 364.387 487.747C367.752 491.341 370.531 494.779 373.788 497.679C378.965 502.286 385.056 505.243 391.859 506.92C394.598 507.596 397.466 508.93 399.568 510.771C403.598 514.305 407.959 513.109 412.454 512.925C415.18 512.814 418.821 512.724 420.54 514.286C427.458 520.576 433.887 527.419 440.292 534.249C443.86 538.053 443.646 542.819 442.27 548.061C439.607 540.116 433.643 535.494 426.063 531.536C426.695 534.311 427.279 536.877 427.863 539.443C427.584 539.68 427.303 539.918 427.024 540.155C425.822 538.517 424.123 537.049 423.498 535.215C419.666 523.964 419.747 523.937 408.168 523.94C406.506 523.94 404.842 523.94 402.284 523.94C405.636 528.202 408.451 532.087 411.587 535.695C415.601 540.316 419.575 545.042 424.107 549.122C429.288 553.784 431.566 558.611 429.452 565.727C428.169 570.046 428.476 574.87 428.292 579.476C428.088 584.576 426.152 588.259 420.477 589.984C420.477 587.943 419.953 585.998 420.564 584.524C424.134 575.918 421.462 567.23 421.21 558.582C421.192 557.979 420.916 557.27 420.522 556.812C416.336 551.953 412.104 547.135 407.882 542.31C407.425 542.039 406.968 541.763 406.511 541.488C406.734 541.995 406.956 542.502 407.18 543.009C408.209 547.891 410.495 552.675 408.262 557.802C407.512 559.527 406.829 561.28 405.991 563.323C401.56 560.733 403.756 557.056 403.317 554.112C402.784 550.535 403.156 546.734 402.12 543.341C400.138 536.852 397.885 530.356 394.843 524.317C393.345 521.344 390.011 519.16 387.208 517.007C372.293 505.545 357.283 494.207 342.307 482.825C341.888 481.686 341.47 480.549 341.051 479.41C340.38 480.028 339.708 480.646 339.037 481.264C339.837 482.481 340.637 483.697 341.436 484.912C342.381 488.331 343.104 491.833 344.314 495.156C347.923 505.082 352.159 515.302 359.874 522.148C364.834 526.55 373.435 526.932 380.473 528.863C382.328 529.373 384.442 528.94 386.742 528.94C385.172 533.5 381.169 533.518 377.891 533.786C374.553 534.059 371.117 533.146 367.059 532.675C367.867 537.603 371.406 539.437 374.106 541.825C376.185 543.663 378.533 545.195 380.729 546.906C384.278 549.671 385.264 553.26 385.382 557.778C385.896 577.338 392.055 594.93 404.171 610.509C408.529 616.112 413.591 621.822 413.493 629.591C413.427 634.901 412.538 640.201 411.964 645.5C411.434 650.393 411.015 655.308 410.209 660.156C409.439 664.792 408.99 669.709 407.043 673.866C404.216 679.901 402.965 685.928 403.148 692.489C403.187 693.88 401.786 695.311 401.047 696.724C400.452 695.335 399.31 693.929 399.351 692.559C399.669 681.857 396.782 670.855 402.102 660.574C402.258 660.272 401.878 659.692 401.589 658.689C398.211 662.179 395.057 665.439 391.903 668.697C391.263 668.225 390.624 667.754 389.984 667.282C390.855 665.548 391.515 663.661 392.632 662.103C399.728 652.218 404.231 641.599 403.363 629.067C403.128 625.665 402.833 622.759 400.367 620.086C392.92 612.012 388.702 602.019 384.287 592.154C383.522 590.444 382.355 588.914 381.374 587.301C380.916 587.414 380.458 587.528 380 587.641C380.353 592.615 380.56 597.605 381.092 602.561C381.907 610.149 381.74 617.577 376.021 623.363C369.762 629.693 369.304 638.07 367.343 645.897C365.364 653.796 364.779 662.151 361.982 669.713C358.646 678.734 361.133 686.509 364.494 694.398C366.744 699.681 369.454 704.79 372.235 709.823C378.157 720.539 380.694 731.851 378.203 743.937C375.765 755.767 373.055 767.547 370.173 779.277C369.594 781.636 367.71 783.673 366.427 785.86C365.75 785.728 365.073 785.596 364.397 785.465C364.397 782.867 363.827 780.111 364.493 777.697C367.912 765.306 368.67 752.708 368.318 739.948C368.21 736.048 369.474 731.972 368.718 728.261C367.83 723.905 365.948 719.53 363.57 715.746C358.402 707.528 355.375 698.724 354.241 689.154C354.036 687.427 353.307 685.763 352.369 682.494C350.968 685.511 350.025 687.222 349.361 689.034C347.85 693.151 347.265 697.855 344.889 701.359C339.244 709.679 339.681 718.506 341.631 727.419C344.242 739.349 342.931 750.017 334.391 759.384C330.645 763.491 327.514 768.158 324.103 772.572C323.365 772.303 322.626 772.035 321.888 771.766C321.888 770.078 321.379 768.179 321.975 766.741C324.735 760.09 327.466 753.385 330.868 747.054C333.406 742.333 334.547 737.66 333.217 732.568C328.137 713.116 333.116 695.362 343.05 678.864C349.831 667.599 353.999 655.761 357.071 643.013C359.874 631.375 365.141 620.289 369.757 609.141C374.609 597.422 375.968 585.849 370.811 573.862C369.212 570.148 368.675 565.98 367.121 562.243C366.113 559.819 364.469 557.441 362.54 555.661C355.552 549.207 349.355 542.168 346.415 532.985C343.582 524.131 339.741 515.951 333.74 508.778C332.723 507.563 332.304 505.477 332.345 503.812C332.564 494.826 330.084 486.789 325.463 479.05C322.655 474.347 321.155 468.854 319.163 463.679C315.134 453.212 308.892 444.372 300.166 437.283C297.353 434.996 294.351 432.808 292.025 430.075C286.424 423.489 279.171 423.389 271.629 424.31C262.442 425.431 254.109 429.065 245.545 432.472C236.87 435.921 227.266 437.2 217.968 438.879C203.585 441.477 189.756 444.953 182.566 459.486C178.432 467.842 174.593 476.406 171.448 485.173C167.387 496.487 165.154 508.241 165.181 520.393C165.189 523.733 164.197 527.203 163.049 530.392C160.447 537.596 160.646 544.79 162.301 552.089ZM337.552 476.836C337.233 477.06 336.912 477.283 336.593 477.506C337.186 478.427 337.779 479.347 338.371 480.268C338.721 480.031 339.07 479.794 339.419 479.558C338.797 478.651 338.174 477.744 337.552 476.836ZM305.274 139.901C304.954 140.369 304.715 140.715 304.477 141.062C304.827 141.3 305.256 141.793 305.507 141.715C305.877 141.599 306.117 141.076 306.414 140.726C306.086 140.489 305.758 140.252 305.274 139.901ZM401.277 658.884C401.532 658.771 402.007 658.613 401.996 658.56C401.907 658.152 401.724 657.764 401.57 657.371C401.384 657.623 401.115 657.852 401.041 658.134C400.985 658.342 401.184 658.616 401.277 658.884ZM245.305 147.804C245.13 148.013 244.955 148.222 244.781 148.431C245.044 148.547 245.332 148.787 245.562 148.742C245.748 148.704 245.863 148.319 246.009 148.089C245.778 147.994 245.546 147.9 245.305 147.804ZM409.785 335.012C409.67 335.116 409.472 335.211 409.461 335.325C409.45 335.439 409.625 335.572 409.718 335.697C409.834 335.593 410.031 335.497 410.043 335.383C410.055 335.269 409.878 335.136 409.785 335.012ZM356.074 99.416C355.98 99.292 355.886 99.168 355.793 99.043C355.677 99.148 355.481 99.245 355.47 99.359C355.459 99.474 355.635 99.606 355.729 99.73C355.843 99.625 355.959 99.52 356.074 99.416Z" transform="translate(24.688)" fill="#AE804A"/>
<path fill-rule="evenodd" clip-rule="evenodd" d="M0 0C6.237 6.776 12.571 13.467 18.683 20.354C24.245 26.623 29.539 33.127 34.999 39.487C44.532 50.593 54.101 61.669 63.775 72.896C71.925 69.027 80.17 65.108 88.418 61.199C108.078 51.878 127.652 42.369 147.487 33.436C150.69 31.995 155.209 32.385 158.847 33.178C180.015 37.789 201.076 42.889 222.223 47.6C247.356 53.199 272.551 58.525 297.697 64.066C305.736 65.838 313.708 67.919 322.993 70.17C302.467 76.702 283.288 82.849 264.082 88.909C233.634 98.517 203.178 108.098 172.707 117.632C149.697 124.832 126.638 131.88 103.635 139.104C74.733 148.18 45.877 157.408 16.968 166.467C11.389 168.214 5.66 169.486 0 170.978C0 113.985 0 56.992 0 0Z" transform="translate(0.000976562 626.917)" fill="#B4D8E4"/>
<path fill-rule="evenodd" clip-rule="evenodd" d="M0.000999987 0C5.618 7.78 11.312 15.505 16.837 23.35C37.359 52.485 57.885 81.618 78.296 110.83C102.73 145.798 127.023 180.864 151.437 215.847C156.854 223.609 162.518 231.199 168.864 239.97C166.152 239.97 164.47 239.97 162.788 239.97C118.127 239.97 73.465 239.809 28.808 240.148C22.281 240.198 18.187 238.855 16.715 231.98C61.668 231.98 106.604 231.98 152.716 231.98C148.702 225.907 145.275 220.475 141.601 215.213C132.804 202.61 123.861 190.109 115.028 177.53C94.641 148.501 74.254 119.472 53.923 90.404C36.315 65.227 18.786 39.995 1.201 14.803C0.944 14.435 0.407 14.262 0 13.997C0.001 9.332 0.000999987 4.667 0.000999987 0Z" transform="translate(0 107.981)" fill="#B4D8E4"/>
<path fill-rule="evenodd" clip-rule="evenodd" d="M0 0C2.837 3.345 5.947 6.498 8.468 10.067C28.917 39.028 49.237 68.081 69.634 97.08C86.368 120.871 103.158 144.623 119.907 168.403C120.548 169.313 121.019 170.342 121.614 171.395C113.144 172.774 113.077 172.614 108.374 165.945C86.617 135.098 64.754 104.324 43 73.474C29.822 54.786 16.792 35.992 3.627 17.294C2.709 15.991 1.222 15.087 0 13.999C0 9.33199 0 4.667 0 0Z" transform="translate(0.000976562 163.974)" fill="#B4D8E4"/>
<path fill-rule="evenodd" clip-rule="evenodd" d="M0 0C0.809 0.963 1.845 1.81201 2.392 2.90401C23.362 44.8 44.288 86.718 65.215 128.635C65.489 129.185 65.708 129.762 65.98 130.388C57.889 131.801 57.902 131.794 54.522 125.041C37.369 90.773 20.218 56.503 3.019 22.257C2.247 20.72 1.017 19.412 0 17.998C0 11.999 0 6 0 0Z" transform="translate(0.000976562 204.969)" fill="#B4D8E4"/>
<path fill-rule="evenodd" clip-rule="evenodd" d="M1.95599 16.035C1.30499 15.702 0.652 15.368 0 15.035C0.046 14.539 -0.0519893 13.969 0.161011 13.559C2.34201 9.36599 4.13301 5.14799 0.656006 0.304993C1.38101 0.202993 2.10401 0.102 2.82901 0C3.81601 3.086 4.80299 6.17299 5.92999 9.69699C6.51399 9.69699 7.66099 9.69699 10.042 9.69699C6.83899 12.208 4.39699 14.122 1.95599 16.035Z" transform="translate(352.833 195.907)" fill="#AE804A"/>
<path fill-rule="evenodd" clip-rule="evenodd" d="M0.313995 4.88892C0.208995 3.90992 0.104 2.92992 0 1.94992C3.673 1.34892 7.33698 0.696922 11.019 0.163922C14.208 -0.298078 17 -0.0600772 16.822 4.60692C11.105 1.23192 5.758 4.47292 0.313995 4.88892Z" transform="translate(287.006 51.9231)" fill="#AE804A"/>
<path fill-rule="evenodd" clip-rule="evenodd" d="M0 6.883C3.153 4.589 6.30701 2.295 9.45901 0C9.99201 0.756 10.524 1.51201 11.058 2.26801C7.87401 4.35901 4.69201 6.45101 1.51501 8.54601C1.01401 7.99401 0.508 7.438 0 6.883Z" transform="translate(300.388 134.325)" fill="#AE804A"/>
<path fill-rule="evenodd" clip-rule="evenodd" d="M2.237 12.002C1.492 11.977 0.746 11.951 0 11.926C1.454 7.95099 2.90598 3.976 4.35898 0C5.06098 0.263 5.763 0.524003 6.465 0.787003C5.057 4.526 3.646 8.264 2.237 12.002Z" transform="translate(375.839 203)" fill="#AE804A"/>
<path fill-rule="evenodd" clip-rule="evenodd" d="M2.746 10.507C2 10.482 1.254 10.456 0.507996 10.431C0.352996 7.246 0.197 4.06 0 0C4.794 3.003 4.068 6.67099 2.746 10.507Z" transform="translate(437.323 280.486)" fill="#AE804A"/>
<path fill-rule="evenodd" clip-rule="evenodd" d="M1.42099 10.604C0.94699 10.055 0.474 9.50599 0 8.95799C0.82 5.97199 1.64201 2.986 2.46201 0C3.18301 0.216 3.90299 0.430996 4.62299 0.645996C3.55499 3.965 2.48799 7.28399 1.42099 10.604Z" transform="translate(396.847 141.968)" fill="#AE804A"/>
<path fill-rule="evenodd" clip-rule="evenodd" d="M1.94901 7.75101C1.30001 7.76601 0.65 7.77901 0 7.79401C0 5.20501 0 2.618 0 0.0299988C0.504 0.0189988 1.00698 0.009 1.50998 0C1.65598 2.584 1.80201 5.16801 1.94901 7.75101Z" transform="translate(426.114 269.167)" fill="#AE804A"/>
<path fill-rule="evenodd" clip-rule="evenodd" d="M0.0769958 4.111C0.0519958 3.365 0.026 2.619 0 1.874C1.506 1.249 3.00999 0.624 4.51599 0C4.76299 0.494 5.00901 0.987995 5.25601 1.48199C3.52901 2.35899 1.803 3.234 0.0769958 4.111Z" transform="translate(344.923 64.99)" fill="#AE804A"/>
<path fill-rule="evenodd" clip-rule="evenodd" d="M5.62801 0C5.60201 0.745 5.57601 1.491 5.55101 2.237C3.70001 1.776 1.85 1.315 0 0.853001C0.007 0.569001 0.0140114 0.284 0.0210114 0C1.88901 0 3.75801 0 5.62801 0Z" transform="translate(170.386 23.87)" fill="#AE804A"/>
<path fill-rule="evenodd" clip-rule="evenodd" d="M0.0350037 1.408C1.117 0.938005 2.19999 0.469 3.28299 0C3.57399 0.541 3.86501 1.082 4.15601 1.623C2.77201 2.28 1.387 2.937 0 3.594C0.008 2.864 0.0220037 2.136 0.0350037 1.408Z" transform="translate(323.036 87.777)" fill="#AE804A"/>
<path fill-rule="evenodd" clip-rule="evenodd" d="M0 0C0.743 0 1.487 0 2.23 0C2.138 1.452 2.046 2.905 1.955 4.358C1.739 4.401 1.52399 4.44401 1.30899 4.48801C0.87299 2.99201 0.437 1.496 0 0Z" transform="translate(239.855 125.021)" fill="#AE804A"/>
<path fill-rule="evenodd" clip-rule="evenodd" d="M2.22897 3.53497C1.48697 3.53497 0.743 3.53497 0 3.53497C0.283 2.35697 0.565976 1.179 0.849976 0C1.16198 0.018 1.47499 0.0359785 1.78799 0.0529785C1.93499 1.21398 2.08197 2.37497 2.22897 3.53497Z" transform="translate(406.835 262.385)" fill="#AE804A"/>
<path fill-rule="evenodd" clip-rule="evenodd" d="M3.09601 0.0399933C2.44301 1.19799 1.78902 2.356 1.13702 3.513C0.758024 3.34 0.379 3.166 0 2.992C0.383 1.995 0.765003 0.997 1.147 0C1.797 0.013 2.44701 0.0259933 3.09601 0.0399933Z" transform="translate(333.978 133.98)" fill="#AE804A"/>
<path fill-rule="evenodd" clip-rule="evenodd" d="M1.53 1.636C1.143 2.02 0.756995 2.40399 0.369995 2.78799C0.245995 1.85799 0.123 0.93 0 0C0.51 0.545 1.02 1.091 1.53 1.636Z" transform="translate(397.47 215.224)" fill="#AE804A"/>
<path fill-rule="evenodd" clip-rule="evenodd" d="M3.19 2.235C2.551 2.541 1.914 2.847 1.276 3.153C0.850001 2.688 0.425 2.224 0 1.759C1.038 1.173 2.075 0.587 3.112 0C3.138 0.745 3.164 1.489 3.19 2.235Z" transform="translate(270.812 143.864)" fill="#AE804A"/>
<path fill-rule="evenodd" clip-rule="evenodd" d="M1.23499 1.795C0.822985 1.769 0.412 1.742 0 1.717C0.508 1.144 1.01598 0.572 1.52298 0C1.42598 0.598 1.33099 1.196 1.23499 1.795Z" transform="translate(285.851 47.23)" fill="#AE804A"/>
<path fill-rule="evenodd" clip-rule="evenodd" d="M2.07501 0C2.06101 0.729 2.04801 1.457 2.04001 2.186C2.04401 2.186 1.95399 2.198 1.95999 2.199C1.30999 1.789 0.655 1.377 0 0.964996C0.693 0.642996 1.38401 0.321 2.07501 0Z" transform="translate(320.996 89.185)" fill="#AE804A"/>
<path fill-rule="evenodd" clip-rule="evenodd" d="M0.901001 0C0.601001 0.575 0.302 1.15 0 1.725C0.298 1.149 0.600001 0.574 0.901001 0Z" transform="translate(284.23 50.025)" fill="#AE804A"/>
<path fill-rule="evenodd" clip-rule="evenodd" d="M0.593617 0.369995C0.479617 0.470995 0.3646 0.571996 0.2506 0.673996C0.1596 0.550996 -0.0114002 0.418999 0.000599777 0.307999C0.0125998 0.195999 0.206607 0.102 0.320607 0C0.412607 0.124 0.502617 0.246995 0.593617 0.369995Z" transform="translate(335.189 205.232)" fill="#AE804A"/>
<path fill-rule="evenodd" clip-rule="evenodd" d="M0.367004 0C0.466004 0.11 0.565992 0.222 0.666992 0.333C0.552992 0.431 0.436005 0.606001 0.324005 0.603001C0.214005 0.599001 0.108 0.417 0 0.312C0.114 0.216 0.228004 0.118 0.367004 0Z" transform="translate(164.234 43.177)" fill="#AE804A"/>
<path fill-rule="evenodd" clip-rule="evenodd" d="M1.22198 0C0.814985 0 0.408 0 0 0C0.408 0 0.814985 0 1.22198 0Z" transform="translate(349.846 213.01)" fill="#F2F2F2"/>
<path fill-rule="evenodd" clip-rule="evenodd" d="M1.22101 0C0.815008 0 0.408 0 0 0C0.408 0 0.815008 0 1.22101 0Z" transform="translate(364.844 118.022)" fill="#F2F2F2"/>
<path fill-rule="evenodd" clip-rule="evenodd" d="M0.367004 0C0.466004 0.11 0.565992 0.222 0.666992 0.333C0.552992 0.431 0.436005 0.605996 0.324005 0.603996C0.214005 0.599996 0.108 0.416996 0 0.312996C0.114 0.215996 0.228004 0.118 0.367004 0Z" transform="translate(146.236 66.174)" fill="#AE804A"/>
<path fill-rule="evenodd" clip-rule="evenodd" d="M1.22 0.00075C0.814001 -0.00025 0.407 -0.00025 0 0.00075C0.407 0.00075 0.814001 0.00075 1.22 0.00075Z" transform="translate(283.855 275.001)" fill="#F2F2F2"/>
<path fill-rule="evenodd" clip-rule="evenodd" d="M0.320516 0C0.411516 0.123 0.582516 0.253997 0.570516 0.365997C0.558516 0.477997 0.364509 0.571996 0.250509 0.673996C0.159509 0.549996 -0.0104911 0.419007 0.000508926 0.307007C0.0115089 0.195007 0.205516 0.102 0.320516 0Z" transform="translate(390.15 235.029)" fill="#AE804A"/>
<path fill-rule="evenodd" clip-rule="evenodd" d="M4.40799 0C4.79599 0.383 5.18298 0.76598 5.57098 1.14798C4.13998 3.29798 2.70998 5.44799 1.27798 7.59799C0.850985 7.29199 0.425 6.98698 0 6.68198C1.47 4.45598 2.93899 2.228 4.40799 0Z" transform="translate(459.421 466.893)" fill="#AE804A"/>
<path fill-rule="evenodd" clip-rule="evenodd" d="M2.39899 5.50198C1.59899 4.28598 0.799 3.06997 0 1.85397C0.671 1.23697 1.34298 0.619 2.01398 0C2.43298 1.139 2.85099 2.27598 3.26999 3.41498C2.97899 4.11098 2.68899 4.80598 2.39899 5.50198Z" transform="translate(363.722 479.398)" fill="#AE804A"/>
<path fill-rule="evenodd" clip-rule="evenodd" d="M0 43.1053C36.164 43.1053 71.942 43.1053 108.729 43.1053C98.556 28.6353 88.77 14.7173 78.929 0.720266C88.041 -0.835734 88.144 -0.696741 95.441 9.74526C104.974 23.3913 114.625 36.9543 124.204 50.5683C124.352 50.7793 124.223 51.1863 124.223 52.1043C122.464 52.1043 120.719 52.1043 118.973 52.1043C83.189 52.1043 47.406 52.1043 11.622 52.1043C3.254 52.1043 3.254 52.1043 0 43.1053Z" transform="translate(45.478 351.84)" fill="#B4D8E4"/>
<path fill-rule="evenodd" clip-rule="evenodd" d="M27.676 0.823071C34.609 -1.68093 37.494 1.82907 39.973 7.29307C44.426 17.1041 49.49 26.6371 54.558 36.8111C37.443 36.8111 20.792 36.8111 3.636 36.8111C2.651 34.8031 1.464 32.3861 0 29.4001C13.999 29.4001 27.387 29.4001 41.779 29.4001C36.852 19.4171 32.275 10.1401 27.676 0.823071Z" transform="translate(66.683 407.709)" fill="#B4D8E4"/>
<path fill-rule="evenodd" clip-rule="evenodd" d="M0 0.340341C9.014 -0.443659 9.019 -0.446674 12.66 6.81233C17.867 17.1953 23.067 27.5833 28.281 37.9923C21.346 40.3823 19.6 39.7333 16.613 33.7363C11.151 22.7713 5.701 11.8013 0 0.340341Z" transform="translate(65.709 351.957)" fill="#B4D8E4"/>
<path fill-rule="evenodd" clip-rule="evenodd" d="M6.669 1.959C4.579 2.441 2.49 2.923 0.4 3.406C0.267 2.965 0.133 2.525 0 2.083C1.89 1.389 3.78 0.694 5.67 0C6.003 0.654 6.336 1.307 6.669 1.959Z" transform="translate(25.302 52.862)" fill="#AE804A"/>
<path fill-rule="evenodd" clip-rule="evenodd" d="M0.959015 0C1.58101 0.908 2.20399 1.81498 2.82599 2.72198C2.47699 2.95798 2.12802 3.19501 1.77802 3.43201C1.18502 2.51101 0.592 1.59098 0 0.669983C0.32 0.446983 0.640015 0.223 0.959015 0Z" transform="translate(361.281 476.836)" fill="#AE804A"/>
<path fill-rule="evenodd" clip-rule="evenodd" d="M0.79599 0C1.27999 0.351 1.60798 0.587997 1.93698 0.824997C1.63998 1.175 1.4 1.698 1.03 1.814C0.778999 1.892 0.349 1.399 0 1.161C0.237 0.814995 0.47599 0.468 0.79599 0Z" transform="translate(329.166 139.901)" fill="#AE804A"/>
<path fill-rule="evenodd" clip-rule="evenodd" d="M0.245761 1.51398C0.152761 1.24598 -0.0462319 0.972 0.00976811 0.763C0.0837681 0.482 0.35376 0.252 0.53876 0C0.69176 0.394 0.875785 0.781026 0.964785 1.18903C0.975785 1.24203 0.500761 1.39998 0.245761 1.51398Z" transform="translate(425.719 657.37)" fill="#AE804A"/>
<path fill-rule="evenodd" clip-rule="evenodd" d="M0.669006 1.521C0.445006 1.014 0.223 0.507 0 0C0.457 0.275 0.914002 0.551021 1.371 0.822021C1.171 1.08602 0.938006 1.321 0.669006 1.521Z" transform="translate(431.195 541.477)" fill="#AE804A"/>
<path fill-rule="evenodd" clip-rule="evenodd" d="M0.529022 0C0.765022 0.096 0.997027 0.189005 1.22803 0.283005C1.08203 0.513005 0.966006 0.898005 0.781006 0.936005C0.551006 0.982005 0.262 0.742 0 0.625C0.175 0.417 0.349022 0.208 0.529022 0Z" transform="translate(269.469 147.805)" fill="#AE804A"/>
<path fill-rule="evenodd" clip-rule="evenodd" d="M0.32447 0C0.41847 0.124 0.594496 0.257002 0.582496 0.371002C0.570496 0.485002 0.373484 0.580998 0.257484 0.684998C0.164484 0.559998 -0.0105049 0.426988 0.000495095 0.312988C0.0114951 0.198988 0.20847 0.103 0.32447 0Z" transform="translate(434.148 335.012)" fill="#F2F2F2"/>
<path fill-rule="evenodd" clip-rule="evenodd" d="M0.605473 0.373001C0.490473 0.477001 0.375495 0.582004 0.259495 0.687004C0.165495 0.563004 -0.0105076 0.431002 0.000492358 0.316002C0.0114924 0.202002 0.20749 0.105 0.32349 0C0.41749 0.125 0.511473 0.249001 0.605473 0.373001Z" transform="translate(380.156 99.043)" fill="#AE804A"/>
</svg>
