<svg width="64" height="64" viewBox="0 0 64 64" fill="none" xmlns="http://www.w3.org/2000/svg">
<path d="M31.9998 0C14.3272 0 0 14.3271 0 32.0002C0 49.674 14.3272 64 31.9998 64C49.6744 64 64 49.674 64 32.0002C64 14.3283 49.6744 0.00152851 31.9994 0.00152851L31.9998 0V0ZM46.6747 46.1535C46.1015 47.0935 44.8711 47.3916 43.9311 46.8145C36.4179 42.2252 26.9597 41.1858 15.8209 43.7308C14.7475 43.9753 13.6776 43.3028 13.433 42.229C13.1873 41.1552 13.8572 40.0853 14.9332 39.8407C27.1228 37.0546 37.5787 38.2549 46.0136 43.4098C46.9537 43.9868 47.2517 45.2134 46.6747 46.1535V46.1535ZM50.5914 37.439C49.8692 38.6141 48.3331 38.9847 47.16 38.2625C38.5585 32.9742 25.4468 31.443 15.2729 34.5314C13.9535 34.93 12.5599 34.1863 12.1594 32.8692C11.762 31.5497 12.506 30.1587 13.8232 29.7575C25.4446 26.2312 39.8921 27.9393 49.7699 34.0094C50.943 34.7316 51.3136 36.2678 50.5914 37.4394V37.439ZM50.9277 28.3658C40.6143 22.2399 23.5985 21.6766 13.7517 24.6652C12.1705 25.1448 10.4983 24.2522 10.0192 22.6709C9.53999 21.0889 10.4319 19.4179 12.0142 18.9371C23.3177 15.5056 42.1084 16.1686 53.9824 23.2177C55.4077 24.0619 55.8739 25.8987 55.0294 27.3191C54.1887 28.7414 52.3469 29.2103 50.9292 28.3658H50.9277Z" fill="#B7D9E4"/>
</svg>
