<svg width="958" height="807" viewBox="0 0 958 807" fill="none" xmlns="http://www.w3.org/2000/svg">
<path fill-rule="evenodd" clip-rule="evenodd" d="M357.044 0C359.474 1.334 361.783 3.44999 364.357 3.84799C370.71 4.82699 373.482 6.84798 375.049 13.2C376.544 19.258 378.253 20.228 384.252 19.026C389.998 17.876 395.856 17.248 401.556 15.918C404.284 15.281 406.942 13.833 409.314 12.271C421.397 4.309 433.707 5.55299 446.168 11.08C448.084 11.93 449.878 13.056 452.104 14.256C447.665 17.462 443.729 15.038 440.475 13.552C429.714 8.63597 420.663 10.456 412.002 18.278C409.312 20.708 405.245 21.972 401.588 22.892C395.614 24.395 389.321 24.692 383.417 26.383C375.474 28.657 372.898 35.709 371.129 42.814C369.654 48.736 368.737 54.803 367.733 60.832C367.491 62.284 367.876 63.841 367.972 65.35C369.428 64.996 371.221 65.062 372.278 64.211C375.541 61.59 379.064 59.017 381.498 55.7C386.317 49.131 392.454 50.869 398.485 52.276C406.668 54.186 414.258 54.704 422.151 50.183C429.925 45.731 437.94 47.713 445.093 52.895C444.751 53.542 444.41 54.189 444.069 54.835C437.926 53.671 431.983 50.466 425.479 53.007C424.295 53.469 422.874 53.708 422.002 54.522C415.743 60.37 408.564 59.44 401.213 57.596C399.163 57.081 396.93 55.823 395.097 56.252C392.097 56.954 388.471 58.051 386.701 60.258C383.604 64.117 380.427 67.248 375.648 68.76C369.672 70.651 366.589 74.23 366.826 81.163C367.01 86.538 365.241 91.979 364.229 98.057C368.897 102.541 373.096 102.87 379.33 99.299C385.252 95.905 391.73 94.35 399.261 96.439C396.891 97.627 394.518 98.809 392.15 100.001C387.703 102.239 382.925 104.008 378.895 106.841C373.516 110.622 369.861 111.068 364.628 107.063C362.818 105.678 360.993 104.311 359.801 103.409C353.61 105.708 348.113 108.225 342.355 109.747C337.098 111.137 334.141 114.637 331.006 118.552C328.86 121.234 326.063 123.717 323.04 125.306C317.199 128.376 315.808 133.889 314.099 139.348C313.031 142.758 312.251 146.262 311.122 149.651C309.376 154.893 306.204 158.592 300.56 160.265C292.706 162.593 292.13 163.874 291.999 172.264C291.951 175.364 291.62 178.501 291.003 181.536C290.395 184.525 289.262 187.409 288.23 190.757C294.719 195.258 301.59 192.85 307.33 189.633C316.592 184.441 323.893 177.066 327.181 166.257C329.87 157.411 335.47 152.644 341.773 153.156C343.594 153.303 345.267 155.286 347.007 156.427C345.61 157.62 344.133 158.735 342.833 160.027C340.826 162.02 338.663 163.942 337.053 166.235C331.255 174.493 325.877 183.052 319.917 191.187C315.667 196.987 309.308 199.608 302.356 201.055C297.525 202.06 293.064 201.753 288.66 199.396C287.734 198.9 285.767 199.051 285.018 199.725C277.922 206.108 270.306 212.091 264.175 219.321C256.441 228.442 252.421 239.753 251.167 251.6C249.563 266.759 247.32 281.763 242.963 296.36C241.105 302.589 238.67 308.737 235.704 314.514C232.944 319.891 232.593 325.008 234.299 330.613C236.43 337.61 238.035 344.784 240.477 351.665C242.086 356.203 243.986 361.068 247.126 364.55C255.003 373.281 261.893 382.87 272.311 389.384C281.213 394.95 289.704 401.834 296.64 409.671C301.854 415.562 305.098 423.608 307.821 431.196C312.037 442.947 317.717 453.798 323.596 464.761C328.923 474.693 332.277 485.867 335.213 496.839C337.726 506.227 341.363 514.745 347.668 521.997C352.728 527.817 354.649 534.771 356.173 541.99C356.075 542.478 356.084 543.022 355.864 543.448C346.161 562.203 336.441 580.949 326.698 599.682C326.486 600.09 325.977 600.344 325.274 600.963C319.128 592.152 313.017 583.428 306.945 574.676C301.247 566.462 295.589 558.22 289.913 549.989C289.825 542.625 290.241 535.483 287.526 528.077C285.119 521.509 286.04 513.784 284.989 506.644C282.094 486.961 275.46 468.623 263.808 452.387C258.051 444.365 248.781 441.77 239.821 440.246C224.003 437.556 208.555 434.446 193.749 427.68C185.582 423.948 176.142 422.433 166.832 425.015C165.897 425.274 164.773 425.413 164.114 426.019C151.188 437.882 135.856 447.748 131.58 466.677C130.593 471.045 128.329 475.298 125.907 479.132C121.098 486.743 118.947 494.849 118.878 503.811C118.858 506.435 117.005 509.125 115.72 511.646C112.4 518.153 108.23 524.319 105.68 531.103C101.868 541.248 96.2522 549.696 87.5922 556.22C86.2692 557.216 85.3863 559.098 84.8223 560.748C82.4603 567.67 80.1132 574.607 78.1032 581.638C75.3902 591.132 77.8482 600.158 81.5072 608.868C86.4922 620.736 92.8742 632.085 95.0082 644.996C96.5652 654.415 99.3352 663.267 104.041 671.721C109.103 680.815 113.64 690.299 117.368 700.011C121.154 709.872 120.957 720.394 118.614 730.641C117.284 736.46 117.476 741.589 120.381 746.981C123.781 753.293 126.469 760.002 129.233 766.635C129.861 768.143 129.532 770.05 129.644 771.774C128.885 772.103 128.126 772.432 127.368 772.76C123.859 768.268 120.237 763.858 116.872 759.26C113.039 754.021 108.384 749.052 108.56 741.946C108.677 737.245 109.202 732.551 109.62 727.86C110.238 720.922 112.478 714.111 109.223 707.068C105.968 700.029 103.547 692.606 100.702 685.376C100.49 684.837 99.8062 684.484 98.7292 683.466C97.7512 686.787 96.2302 689.622 96.2062 692.47C96.1312 701.305 92.1202 708.591 87.6602 715.643C83.9722 721.476 81.5422 727.192 82.8842 734.405C83.7222 738.915 82.6722 743.743 83.1222 748.364C84.0592 757.973 85.5053 767.531 86.5723 777.13C86.8833 779.922 86.6202 782.777 86.6202 785.604C85.9952 785.783 85.3702 785.961 84.7452 786.139C83.1962 783.06 80.9612 780.136 80.2192 776.872C77.2572 763.835 73.7772 750.789 72.4782 737.552C71.7632 730.271 74.1152 722.28 76.6782 715.184C80.3882 704.915 85.9602 695.328 89.8562 685.114C91.2472 681.468 90.7322 676.71 89.9332 672.689C87.6212 661.043 84.4202 649.57 82.1782 637.913C81.0182 631.88 78.6492 626.518 74.5742 622.362C68.5332 616.198 70.0982 608.912 70.2322 601.781C70.3202 597.094 70.9702 592.418 71.3702 587.736C70.8502 587.555 70.3312 587.375 69.8122 587.194C68.4862 589.64 66.8842 591.979 65.8812 594.551C61.9882 604.533 56.6702 613.63 49.7882 621.845C48.9162 622.885 48.2162 624.368 48.1072 625.701C47.0822 638.244 49.4022 649.886 57.4482 660.021C59.1032 662.108 60.1292 664.695 61.9222 667.907C53.9062 667.809 53.6992 660.67 48.8402 656.767C49.3312 659.399 49.3193 661.188 49.9943 662.663C54.7103 672.974 51.2062 683.768 51.9292 694.304C51.9842 695.102 50.7562 695.987 50.1252 696.831C49.4412 696.041 48.3492 695.335 48.1652 694.441C47.8362 692.84 48.3193 691.074 47.9943 689.472C47.0283 684.719 45.8383 680.012 44.7273 675.288C43.5043 670.09 41.9352 664.945 41.1212 659.684C39.8182 651.265 39.3013 642.721 37.8953 634.323C36.9733 628.81 38.2682 624.05 41.0442 619.571C46.6352 610.55 52.8512 601.888 57.9972 592.627C63.7292 582.309 65.5692 570.626 65.7782 559.058C65.9072 551.887 68.9122 547.631 74.1792 543.966C78.1652 541.193 82.4742 538.695 84.0622 533.202C77.3622 532.164 69.8802 536.891 64.5802 529.861C70.3312 528.893 76.1932 528.559 81.5912 526.8C86.2772 525.274 91.7462 523.138 94.5392 519.488C99.4772 513.037 102.981 505.385 106.41 497.926C108.13 494.183 108.364 489.756 109.267 485.637C110.451 483.938 111.636 482.24 112.821 480.541C112.512 480.301 112.204 480.06 111.895 479.819C110.932 480.84 109.969 481.86 109.006 482.881C92.8652 495.186 76.8282 507.63 60.5232 519.712C55.4672 523.458 53.8072 528.669 52.1112 534.103C51.7242 535.341 51.6072 536.684 51.0942 537.86C48.3262 544.209 46.5073 550.637 47.9513 557.703C48.2863 559.343 47.4702 561.219 46.5052 562.992C42.2972 559.022 41.7742 554.212 42.4672 549.16C42.7512 547.094 43.5582 545.099 44.1272 543.072C44.3582 542.561 44.5892 542.051 44.8202 541.54C44.3532 541.808 43.8862 542.075 43.4202 542.342C39.2082 547.172 34.9242 551.944 30.8492 556.887C30.1332 557.756 30.0843 559.344 30.0763 560.602C30.0163 570.2 30.0432 579.798 30.0432 589.295C25.6822 588.597 23.4812 585.811 23.0092 580.193C22.5152 574.318 21.6972 568.47 21.1002 562.603C20.6852 558.521 21.4412 555.052 24.5802 551.789C32.7872 543.256 40.5642 534.31 48.5122 525.528C48.3242 525.092 48.1362 524.658 47.9482 524.223C43.4482 524.223 38.8392 523.612 34.4792 524.393C29.9952 525.196 29.3362 529.78 28.0152 533.488C27.1632 535.879 25.8673 538.112 24.7703 540.416C24.3103 540.218 23.8492 540.02 23.3892 539.823C23.3892 538.494 23.3892 537.164 23.3892 535.601C13.9222 534.317 12.7413 542.592 8.90825 548.777C6.28225 540.152 9.93923 534.21 14.6772 529.032C19.3562 523.919 24.7242 519.43 29.8612 514.745C33.4262 511.492 37.8643 511.804 41.8133 513.155C45.9533 514.573 48.5762 512.529 51.6652 510.787C54.7442 509.051 57.8462 506.856 61.1992 506.201C71.0252 504.28 77.6832 497.871 84.2482 491.187C85.1002 490.321 85.4502 488.962 86.0482 487.802C75.8442 486.173 65.8982 484.617 55.9652 482.982C52.5902 482.425 49.2562 481.628 45.8892 481.014C43.1552 480.517 41.5992 481.632 41.0182 484.451C39.7692 490.503 38.3552 496.52 36.9882 502.548C36.8852 503.003 36.6222 503.422 35.8612 505.178C33.1492 499.688 33.0442 494.799 33.0262 489.743C29.5132 491.476 26.1632 493.191 22.7602 494.794C15.8082 498.066 17.3902 504.943 16.0712 510.57C15.2592 514.031 14.6992 517.551 14.0272 521.046C13.4402 520.984 12.8542 520.922 12.2672 520.86C11.8602 517.875 11.3813 514.897 11.0633 511.903C10.6663 508.149 10.3542 504.385 10.0932 500.62C9.80725 496.502 11.5762 493.228 14.7742 490.837C20.9302 486.233 26.7383 480.799 33.5723 477.583C39.0853 474.987 45.9652 473.99 52.1122 474.363C60.6682 474.883 69.0462 478.107 77.6082 478.778C88.0002 479.591 96.5982 475.5 105.291 468.92C117.872 459.396 123.708 444.524 135.661 434.877C139.493 431.783 143.492 428.841 146.953 425.368C148.432 423.883 149.837 420.884 149.315 419.169C148.463 416.365 145.648 417.498 143.054 417.71C137.324 418.181 131.479 417.124 125.723 417.446C118.28 417.862 110.886 419.115 103.452 419.808C99.8142 420.148 95.4872 421.33 92.5982 419.883C84.5892 415.871 76.7922 414.696 68.4522 418.002C62.9712 420.174 58.0762 418.003 53.4822 415.66C46.5882 412.144 40.4602 413.244 33.2802 415.602C23.8382 418.703 22.4122 427.145 18.3902 433.779C16.1872 437.413 21.2122 447.701 25.0772 450.052C29.6282 452.822 34.1392 455.656 38.4962 458.357C30.4722 462.727 14.8912 452.138 12.7352 442.595C9.73125 444.913 8.28823 450.089 9.34523 454.619C10.3032 458.726 11.2212 462.843 12.1572 466.955C11.7702 467.34 11.3842 467.724 10.9972 468.107C6.58624 464.836 5.62325 465.076 3.54525 469.937C2.94925 471.331 2.30423 472.702 1.68123 474.083C1.22123 474.015 0.76025 473.946 0.30025 473.878C0.30025 471.738 -0.456754 469.194 0.433246 467.531C4.03725 460.792 3.78123 453.736 3.02123 446.573C2.59323 442.535 4.23323 440.157 7.44023 437.518C10.1682 435.274 11.8162 431.174 12.8972 427.58C15.6732 418.351 20.1462 410.991 30.1602 408.423C35.8052 406.975 41.3753 404.706 47.0933 404.255C51.2503 403.926 55.9392 405.257 59.7762 407.117C65.7072 409.992 71.2852 408.457 77.0492 407.482C78.1732 407.293 79.2812 407.008 81.5712 406.514C78.2692 403.337 75.2632 400.712 72.5882 397.784C70.5232 395.524 68.7662 392.956 67.0582 390.4C62.6252 383.762 58.3392 377.028 53.9072 370.39C51.6442 367.002 49.0012 363.858 46.8682 360.396C42.2392 352.885 37.0172 345.595 33.5152 337.57C28.1322 325.232 25.8092 312.529 34.2022 300.008C35.7602 297.683 35.2673 293.841 35.3263 290.693C35.3913 287.139 33.4292 283.06 38.7172 280.871C38.7172 285.586 38.7172 289.996 38.7172 295.56C41.7972 293.002 44.1882 291.473 45.9372 289.402C47.0952 288.032 47.7952 285.908 47.8922 284.079C48.1532 279.138 47.9813 274.172 47.9813 268.043C53.2543 276.701 52.7673 290.846 46.1843 295.981C37.2023 302.989 36.0272 312.667 35.4542 322.314C35.2102 326.418 38.9762 330.761 40.9202 334.997C41.3372 334.997 41.7532 334.997 42.1682 334.997C44.6952 331.209 47.3213 327.481 49.7013 323.603C50.7093 321.96 51.9272 319.947 51.8012 318.191C51.0672 307.907 58.5662 302.021 64.2952 295.654C68.2832 291.223 68.8252 286.955 67.5192 282.111C65.7312 275.483 65.3812 269.04 67.8702 261.089C68.8392 264.22 69.6192 266.12 70.0052 268.099C71.3162 274.821 72.7722 281.537 73.5602 288.327C73.8392 290.737 72.9842 293.793 71.5632 295.779C68.7932 299.65 65.1822 302.908 62.0852 306.56C60.9422 307.907 59.5782 309.612 59.4912 311.217C58.9412 321.369 53.2712 329.367 48.6182 337.761C46.4282 341.712 46.5982 345.064 48.4982 349.141C53.1632 359.147 59.9002 367.375 68.0842 374.637C70.7762 377.025 73.0272 379.948 75.2882 382.778C81.4272 390.463 87.4862 398.21 93.5292 405.969C96.7142 410.059 100.151 410.691 106.233 408.389C111.25 406.491 116.262 403.55 121.409 403.237C132.519 402.56 143.715 403.254 154.875 403.443C156.673 403.473 158.603 404.324 160.236 403.897C170.579 401.191 180.004 404.255 189.36 408.081C190.36 408.489 191.411 408.773 193.116 408.107C188.044 403.727 182.81 399.519 177.939 394.926C171.273 388.64 163.34 383.269 160.515 373.868C159.349 369.989 159.236 365.783 157.963 361.953C157.127 359.438 155.567 356.613 153.475 355.166C146.226 350.155 138.689 345.538 131.059 341.121C129.235 340.065 126.225 339.443 124.449 340.212C118.373 342.841 112.604 341.578 106.708 340.068C106.079 339.907 105.374 340.071 104.716 339.991C99.9152 339.409 93.5792 342.338 90.6552 337.639C86.9072 331.618 85.1582 324.352 82.1492 316.597C88.8262 318.709 91.8642 322.294 91.9332 327.711C91.9822 331.603 94.2392 333.365 97.1822 333.826C102.83 334.712 108.59 334.882 115.985 335.485C109.815 329.372 111.229 322.923 110.98 316.749C110.917 315.182 110.154 313.624 109.616 312.096C108.367 308.549 107.059 305.022 106.303 301.25C112.181 304.231 114.413 309.617 115.984 315.271C117.482 320.666 116.601 326.761 121.075 331.253C123.254 333.441 124.793 336.256 128.707 333.402C129.874 332.55 133.04 333.353 134.658 334.387C143.157 339.819 151.453 345.568 159.68 351.114C160.093 349.147 160.138 346.746 161.095 344.79C163.745 339.37 162.188 334.886 158.963 330.359C150.958 319.125 153.771 307.281 157.338 295.462C157.513 294.886 158.129 294.4 158.628 293.977C159.084 293.588 159.66 293.339 161.47 292.267C160.898 298.626 161.029 304.069 159.782 309.175C158.412 314.79 159.367 319.393 162.458 324.041C164.886 327.692 167.803 331.434 168.748 335.54C169.669 339.536 169.106 344.275 167.875 348.282C165.405 356.314 172.339 373.742 179.571 379.048C189.354 386.226 198.341 394.485 207.778 402.144C209.739 403.736 212.059 405.054 214.421 405.956C224.517 409.816 235.31 409.551 245.799 411.128C249.89 411.743 253.747 413.877 257.732 415.26C258.694 415.594 259.738 415.693 261.32 414.803C258.909 413.043 256.494 411.289 254.088 409.522C250.268 406.715 246.135 404.239 242.703 401.018C235.416 394.177 228.58 386.86 221.404 379.898C211.142 369.942 206.761 357.144 204.168 343.678C202.477 334.893 202.479 325.892 198.525 317.441C196.754 313.652 197.321 308.712 197.07 304.28C196.254 289.851 191.162 286.532 179.737 284.906C169.869 283.503 160.257 281.112 151.7 275.386C144.085 270.29 135.101 269.623 126.268 269.044C118.191 268.514 110.049 268.732 102.021 267.851C99.5742 267.582 96.4592 265.256 95.2892 263.016C91.7412 256.218 86.7592 251.436 79.4932 249.164C74.8992 247.728 71.8072 245.568 71.5382 240.09C71.2492 234.183 69.7712 228.256 73.2252 222.812C73.7772 221.943 75.1752 221.611 76.1822 221.031C76.2762 222.056 76.7782 223.276 76.3972 224.075C74.2782 228.521 73.4452 233.093 75.1152 237.775C75.8812 239.921 76.9662 242.984 78.6482 243.598C87.9442 246.993 94.1952 254.379 101.785 260.003C104.18 261.778 107.691 262.691 110.74 262.816C119.597 263.18 128.479 262.945 138.421 262.945C134.934 256.961 132.279 251.165 128.411 246.342C126.731 244.249 122.5 244.297 119.521 243.135C113.604 240.826 107.711 238.444 101.913 235.858C100.986 235.445 100.431 233.885 99.9932 232.744C98.0012 227.551 96.8152 227.302 92.5812 230.854C91.2242 231.992 89.3362 232.498 87.3522 232.634C90.0052 228.961 90.9892 223.233 97.9232 225.226C97.9232 221.551 97.9232 218.291 97.9232 215.032C98.6682 215.007 99.4142 214.98 100.16 214.955C101.124 218.994 101.906 223.09 103.137 227.046C103.658 228.721 104.783 230.843 106.21 231.489C112.198 234.204 118.403 236.442 124.539 238.828C124.799 238.93 125.162 238.766 126.258 238.625C125.462 237.121 124.928 235.687 124.043 234.517C120.615 229.987 118.983 225.317 120.873 219.496C121.703 216.939 120.956 213.87 120.925 211.034C121.67 211.008 122.415 210.981 123.16 210.955C123.827 211.834 124.494 212.713 125.127 213.545C130.091 210.902 134.944 208.317 139.798 205.733C140.179 206.333 140.559 206.933 140.939 207.533C139.149 208.942 137.523 210.661 135.542 211.708C125.328 217.104 123.885 223.167 129.602 233.341C135.714 244.219 144.427 253.148 151.268 263.317C157.981 273.296 166.937 273.309 176.547 274.011C181.281 274.357 186.002 274.876 190.735 275.248C192.869 275.416 194.378 275.243 193.728 272.16C191.838 263.197 187.422 256.096 181.924 248.558C172.93 236.227 162.602 224.32 158.474 208.658C157.1 203.445 153.875 198.457 152.855 192.821C152.723 192.092 151.592 191.224 150.765 190.994C144.512 189.248 138.3 187.12 131.917 186.143C125.42 185.148 118.747 185.188 112.145 185.04C106.62 184.916 100.936 184.08 95.9942 187.873C94.9312 188.688 93.1542 189.08 91.7942 188.921C80.1342 187.558 75.4772 195.033 72.0592 204.227C71.3212 206.211 70.5632 208.247 69.4162 209.998C68.7152 211.069 67.2552 211.644 66.1362 212.442C65.6672 212.121 65.1992 211.798 64.7322 211.477C65.5112 208.952 65.9992 206.284 67.1352 203.931C69.1992 199.659 71.9772 195.715 73.8532 191.373C75.9542 186.515 79.8062 184.844 84.4822 183.98C86.7112 183.568 89.3782 183.584 91.0312 182.331C97.2122 177.646 104.212 177.719 111.322 178.008C119.328 178.333 127.331 178.753 135.579 178.766C130.095 177.49 124.579 176.331 119.135 174.904C113.33 173.383 107.553 171.729 101.836 169.906C96.2662 168.129 90.9012 165.564 85.2362 164.269C79.9202 163.054 73.8492 164.354 69.4462 159.107C72.9252 158.592 75.5032 158.211 78.0802 157.829C79.1772 158.297 80.2732 158.765 81.3702 159.232C81.5282 158.975 81.6852 158.718 81.8442 158.461C81.2852 157.96 80.7272 157.46 80.1682 156.959C77.2602 152.481 74.3382 148.009 75.5592 141.25C76.6102 142.676 77.4752 143.327 77.5992 144.097C79.3692 155.139 88.0462 159.705 96.8822 162.786C107.42 166.462 118.648 168.113 129.437 171.141C133.588 172.306 137.375 174.803 141.289 176.773C143.57 177.92 145.773 179.224 149.465 181.259C146.744 169.169 145.294 158.322 141.629 148.284C139.784 143.23 134.071 139.484 129.827 135.441C126.387 132.164 122.718 129.04 118.776 126.406C116.633 124.974 113.757 124.473 111.132 123.965C106.18 123.006 100.713 123.286 96.3632 121.183C93.9762 120.03 92.1732 115.012 92.3092 111.831C92.6182 104.66 89.9372 98.357 88.5062 91.672C87.4572 86.769 86.5822 81.319 92.0682 77.829C92.3392 77.558 92.6102 77.287 92.8812 77.016C94.5432 75.807 96.2052 74.597 97.8672 73.387C98.2702 73.852 98.6742 74.317 99.0772 74.782C97.2962 76.791 95.6902 78.999 93.6912 80.761C90.9532 83.175 90.4122 85.811 91.5902 89.157C92.7142 92.351 93.5592 95.643 94.6302 99.242C101.871 96.702 104.479 90.893 106.085 84.211C107.921 90.499 106.445 95.354 102.062 99.64C99.9282 101.728 98.1982 104.494 97.0562 107.271C95.1302 111.956 97.7702 116.303 102.662 116.933C106.891 117.477 111.214 117.375 115.403 118.096C118.195 118.576 121.231 119.454 123.447 121.108C128.83 125.122 133.797 129.693 138.93 134.04C139.666 135.178 140.402 136.315 141.138 137.453C141.451 137.25 141.766 137.048 142.08 136.845C141.679 135.897 141.278 134.949 140.878 133.999C139.934 128.126 138.788 122.275 138.096 116.372C137.225 108.95 132.871 103.835 127.552 99.25C126.692 98.508 125.748 97.779 124.718 97.33C118.214 94.492 115.142 89.946 117.577 82.695C118.623 87.699 120.843 91.88 127.252 92.399C125.853 86.076 121.17 79.812 125.41 73.659C128.259 81.823 131.139 90.103 134.048 98.374C134.312 99.124 134.562 100.043 135.128 100.497C142.238 106.198 142.651 114.335 142.989 122.391C143.215 127.783 145.549 131.961 149.664 135.027C155.731 139.546 155.615 144.984 154.01 151.705C153.115 155.45 154.532 159.936 155.572 163.916C157.833 172.567 160.402 181.144 163.088 189.675C164.186 193.163 165.893 196.462 167.365 199.829C167.757 200.724 168.493 201.497 168.753 202.416C172.365 215.174 180.71 225.364 187.346 236.458C189.385 239.866 192.667 242.53 196.045 246.271C196.045 239.423 195.626 233.469 196.122 227.592C197.731 208.53 198.971 189.395 207.083 171.541C211.715 161.348 205.879 152.321 194.818 150.848C190.448 150.266 186.238 148.174 182.068 146.489C178.021 144.854 174.008 143.062 170.2 140.944C168.15 139.805 166.56 137.839 165.17 135.388C177.175 142.815 190.966 143.389 204.506 146.2C202.074 144.029 199.92 141.368 197.148 139.797C192.547 137.191 190.678 132.934 189.085 128.46C186.314 120.678 181.661 114.922 173.967 111.296C167.117 108.068 160.723 103.871 153.124 99.527C155.873 99.199 157.572 98.997 159.271 98.794C159.56 98.438 159.85 98.081 160.139 97.725C156.38 94.903 152.621 92.08 148.461 88.956C153.056 88.174 160.071 90.659 161.403 94.07C164.034 100.808 169.789 103.74 175.368 107.078C178.007 108.656 180.589 110.331 184.089 112.521C182.504 106.093 183.325 100.437 179.334 94.989C174.806 88.807 171.758 81.639 163.598 79.248C157.656 77.507 151.701 75.808 145.774 74.014C140.471 72.41 135.168 70.796 129.936 68.98C128.43 68.458 127.172 67.221 125.801 66.312C126.006 65.873 126.211 65.434 126.416 64.995C135.044 67.321 143.671 69.646 151.576 71.777C149.06 68.91 146.186 65.631 142.939 61.928C144.664 61.332 145.136 61.066 145.217 61.156C152.964 69.649 163.786 73.206 173.36 78.766C174.611 79.493 175.945 80.342 176.779 81.475C179.878 85.682 183.435 89.733 185.57 94.413C187.553 98.761 187.695 103.908 189.086 108.573C191.264 115.878 193.396 123.253 196.424 130.217C197.493 132.675 200.961 134.334 203.641 135.793C208.419 138.395 211.265 142.038 212.282 147.453C213.267 152.705 214.935 157.826 216.045 163.058C216.317 164.343 215.655 165.86 215.3 167.238C213.928 172.552 212.113 177.788 211.195 183.176C209.822 191.237 209.099 199.406 208.025 207.52C207.705 209.943 206.896 212.318 206.742 214.743C206.538 217.963 206.745 221.21 206.797 224.445C206.901 230.962 206.72 237.502 207.234 243.986C207.591 248.483 208.356 253.111 209.917 257.317C213.441 266.812 217.488 276.065 218.2 286.397C218.384 289.06 220.152 291.614 221.562 295.145C222.906 293.342 223.996 292.542 223.914 291.891C223.018 284.794 227.474 279.502 229.82 273.483C233.846 263.154 236.348 252.648 234.218 241.327C233.322 236.561 233.547 231.528 236.467 226.957C239.262 222.582 241.523 217.86 243.915 213.237C244.499 212.107 244.859 210.79 245.013 209.521C245.742 203.502 246.833 197.472 246.858 191.442C246.875 187.293 245.209 183.16 244.59 178.975C244.293 176.959 243.874 174.234 244.899 172.881C248.762 167.782 253.166 163.089 257.467 158.335C257.843 157.92 258.956 158.173 260.796 158.036C257.14 163.436 253.84 167.968 250.966 172.754C250.029 174.314 249.266 177.099 250.024 178.369C254.662 186.15 255.303 194.059 252.103 202.427C251.882 203.003 252.074 203.737 253.155 205.33C256.77 201.621 260.417 197.94 263.993 194.193C266.785 191.268 269.791 188.478 272.142 185.224C274.182 182.401 276.317 179.16 276.878 175.844C278.655 165.363 279.374 154.702 281.166 144.225C282.44 136.774 278.25 131.886 274.145 127.163C270.398 122.853 265.403 119.656 261.286 115.633C257.272 111.71 252.579 109.64 247.384 111.43C241.751 113.37 236.211 116.23 236.95 123.914C236.983 124.262 236.438 124.664 236.163 125.041C235.42 125.041 234.676 125.041 233.933 125.041C231.631 117.798 232.858 114.54 239.242 110.962C242.176 109.317 245.113 107.68 249.499 105.229C242.884 102.712 237.66 101.053 232.727 98.768C226.084 95.692 220.977 91.309 219.916 83.226C218.332 71.162 212.124 63.432 199.198 61.747C195.404 61.253 191.923 58.367 188.298 56.576C188.536 55.676 188.776 54.775 189.015 53.876C188.653 52.262 188.29 50.648 187.928 49.035C188.673 49.009 189.418 48.983 190.164 48.957C192.405 53.184 195.148 55.667 200.618 56.392C205.824 57.082 210.905 60.328 215.501 63.288C217.663 64.682 218.652 67.993 219.99 70.531C220.835 72.134 221.344 73.914 222.99 75.381C223.344 68.527 223.624 61.669 224.08 54.822C224.309 51.392 224.331 47.814 225.368 44.601C227.603 37.675 230.31 30.889 233.137 24.177C233.65 22.958 235.649 22.365 236.962 21.484C236.754 23.042 236.801 24.687 236.297 26.141C232.693 36.553 226.512 46.349 228.948 58.167C229.211 59.44 229.342 60.964 228.893 62.124C227.115 66.731 226.58 71.085 228.767 75.875C229.544 77.577 228.593 80.412 227.745 82.442C225.849 86.982 226.292 89.185 230.848 91.32C234.667 93.111 238.927 94.017 242.625 95.999C252.998 101.556 263.89 106.386 272.015 115.399C272.96 116.447 274.398 117.05 276.648 118.556C276.648 114.494 277.179 111.236 276.546 108.222C274.802 99.91 277.15 92.877 282.741 86.948C285.521 83.998 286.229 80.676 287.304 77.005C288.622 72.507 291.07 67.739 294.447 64.626C297.403 61.901 297.621 59.931 296.05 57.139C294.134 53.736 291.617 50.662 289.809 47.21C288.497 44.708 287.915 41.823 287.008 39.108C287.008 38.701 287.007 38.294 287.007 37.887C286.479 34.602 287.714 32.035 290.375 30.202C293.539 28.021 296.797 25.977 300.014 23.875C300.039 24.621 300.065 25.366 300.091 26.112C297.792 28.616 295.397 31.038 293.219 33.643C290.054 37.428 290.6 41.795 294.391 44.916C295.538 45.861 296.572 46.945 297.137 47.478C301.408 45.635 305.34 43.938 309.272 42.242C309.598 42.898 309.925 43.555 310.252 44.212C309.308 44.805 308.427 45.559 307.407 45.965C300.972 48.532 298.845 52.655 301.049 59.107C302.256 62.645 301.975 65.108 298.512 67.423C296.763 68.593 296.175 71.475 295.015 73.556C293.918 75.523 292.759 77.453 291.61 79.43C299.941 80.817 301.684 80.14 307.17 73.346C309.098 70.958 310.611 66.989 312.947 66.441C317.615 65.346 322.72 66.117 327.646 66.117C327.766 66.554 327.887 66.99 328.007 67.427C326.781 67.949 325.563 68.899 324.327 68.921C318.38 69.032 314.133 71.858 311.119 76.751C307.765 82.201 303.173 85.102 296.56 85.083C291.482 85.068 284.454 92.534 283.201 99.542C282.475 103.606 283.543 107.977 282.936 112.081C281.945 118.789 283.818 124.327 288.558 128.848C291.653 131.799 292.259 135.223 292.091 139.198C291.903 143.671 292.048 148.157 292.048 152.662C299.804 152.067 303.403 149.073 305.111 142.152C305.695 139.782 306.607 137.476 307.004 135.081C308.187 127.929 312.265 123.527 318.975 120.931C321.303 120.03 324.327 117.998 324.867 115.92C326.988 107.758 333.802 105.77 340.124 102.936C343.404 101.465 346.771 100.167 349.965 98.529C357.444 94.691 359.531 87.881 360.089 80.099C360.934 68.3 361.584 56.453 363.273 44.764C363.948 40.092 366.568 35.37 369.351 31.406C374.185 24.518 371.067 9.74798 361.638 7.28998C357.362 6.17498 354.759 3.789 353.049 0C354.377 0 355.711 0 357.044 0ZM144.357 139.154C144.171 139.368 143.836 139.591 143.858 139.768C143.894 140.061 144.162 140.325 144.333 140.601C144.516 140.369 144.842 140.136 144.842 139.904C144.841 139.655 144.533 139.406 144.357 139.154ZM206.671 148.315C206.432 148.145 206.173 147.819 205.96 147.846C205.728 147.877 205.537 148.235 205.328 148.45C205.563 148.581 205.81 148.83 206.03 148.807C206.259 148.784 206.461 148.499 206.671 148.315ZM95.8772 99.428C95.7682 99.303 95.6592 99.178 95.5502 99.052C95.4372 99.173 95.2362 99.292 95.2332 99.414C95.2312 99.537 95.4272 99.664 95.5362 99.789C95.6492 99.668 95.7632 99.548 95.8772 99.428Z" transform="translate(0 0.00100708)" fill="#AE804A"/>
<path fill-rule="evenodd" clip-rule="evenodd" d="M95.91 539.164C98.538 529.551 104.232 521.783 110.122 513.925C113.122 509.922 114.63 504.497 115.793 499.48C119.667 482.767 126.005 467.31 135.24 452.718C140.13 444.992 142.821 435.754 145.771 426.952C150.291 413.468 158.625 403.378 170.455 395.696C177.305 391.249 184.205 386.616 190.098 381.028C196.509 374.948 202.166 367.947 207.375 360.782C209.829 357.407 210.598 352.753 211.895 348.603C214.03 341.771 216.439 334.971 217.809 327.976C218.539 324.243 218.041 319.903 216.863 316.234C214.128 307.722 209.774 299.663 207.676 291.032C204.947 279.8 203.79 268.188 201.915 256.747C199.431 241.583 195.728 226.822 184.637 215.359C179.379 209.925 173.413 205.16 167.59 200.305C166.557 199.445 164.257 198.905 163.195 199.461C151.077 205.818 135.278 197.483 128.946 187.322C123.701 178.905 117.903 170.829 112.179 162.721C111.295 161.469 109.438 160.942 108.147 159.93C106.995 159.026 106.005 157.915 104.944 156.897C106.199 155.602 107.259 153.528 108.746 153.156C113.535 151.959 119.313 155.318 122.046 160.553C124.087 164.463 125.747 168.57 127.747 172.502C133.725 184.252 143.227 191.258 156.347 192.879C158.722 193.173 161.285 191.96 164.879 191.209C159.459 183.479 160.163 175.553 159.692 167.723C159.564 165.586 156.96 162.233 154.975 161.799C143.445 159.278 140.147 150.549 137.989 140.772C136.394 133.544 134.535 126.832 126.063 124.335C123.942 123.71 122.175 120.778 120.92 118.53C117.382 112.195 111.284 110.051 105.011 107.985C100.878 106.624 96.794 105.111 91.819 103.36C92.715 103.153 92.53 103.146 92.408 103.231C80.794 111.251 80.864 111.141 69.174 103.778C66.362 102.007 62.898 101.287 59.778 99.976C57.382 98.969 55.055 97.794 52.938 96.111C59.859 93.859 66.132 95.969 71.889 98.709C79.782 102.465 81.265 102.795 87.813 98.162C86.808 92.242 84.98 86.664 85.148 81.147C85.36 74.193 82.244 70.694 76.288 68.785C71.532 67.26 68.132 64.325 65.363 60.153C63.17 56.846 59.873 55.475 55.538 56.6C50.969 57.786 46.204 58.819 41.531 58.792C38.385 58.775 34.91 57.34 32.179 55.6C25.834 51.56 19.424 51.336 12.589 53.716C11.078 54.242 9.462 54.468 7.894 54.831C7.554 54.185 7.21399 53.537 6.87399 52.89C15.647 46.497 24.673 46.417 33.777 52.035C40.15 55.968 46.571 53.027 52.966 52.441C55.386 52.219 57.738 51.322 60.157 51.039C67.838 50.141 71.051 56.676 75.766 60.672C76.613 61.389 76.961 62.801 77.868 63.316C79.649 64.327 81.66 64.932 83.575 65.705C83.711 63.777 84.302 61.75 83.903 59.939C82.035 51.46 80.482 42.836 77.656 34.667C75.592 28.7 70.419 26.378 63.677 25.749C54.605 24.903 45.384 23.655 37.998 16.776C30.391 9.689 21.441 9.052 12.007 13.396C6.364 15.995 3.41 16.083 0 14.139C8.027 9.82701 15.712 5.553 25.175 7.09C28.469 7.625 31.941 7.302 35.135 8.13C37.673 8.787 39.85 10.734 42.297 11.871C46.194 13.682 50.059 15.763 54.169 16.867C58.709 18.087 63.541 18.167 68.189 19.051C73.49 20.059 75.794 19.276 76.717 14.19C78.028 6.963 82.045 4.10898 89.108 3.81598C91.095 3.73298 92.986 1.336 94.92 0C96.253 0 97.587 0 98.92 0C97.238 3.549 94.954 6.088 90.773 7.09C80.973 9.438 77.763 24.327 82.636 31.391C87.138 37.916 89.913 45.202 90.042 53.515C90.194 63.383 91.076 73.254 91.981 83.093C92.94 93.522 100.115 98.586 109.065 101.999C113.302 103.615 117.627 105.188 121.513 107.462C123.436 108.586 125.001 111.065 125.765 113.264C127.147 117.239 129.076 120.089 133.395 121.259C142.564 123.741 144.585 131.411 145.894 139.381C147.241 147.583 150.498 151.002 159.919 152.991C159.919 148.807 160.349 144.7 159.819 140.72C159.014 134.672 161.542 130.121 165.405 126.102C168.178 123.216 169.513 120.304 169.053 116.089C168.494 110.957 169.653 105.593 168.783 100.55C167.169 91.18 161.637 86.29 152.405 85.009C147.419 84.318 143.736 81.505 141.329 77.596C137.95 72.111 133.613 69.059 127.147 68.927C126.052 68.906 124.973 68.081 123.887 67.628C123.944 67.124 124 66.62 124.056 66.117C129.068 66.117 134.086 65.975 139.083 66.239C140.053 66.29 141.062 67.825 141.834 68.842C142.817 70.137 143.396 71.765 144.469 72.962C148.617 77.593 152.628 82.71 160.757 79.008C157.802 74.859 154.518 70.501 151.56 65.933C150.7 64.606 150.158 62.528 150.514 61.046C152.89 51.196 152.437 50.06 143.141 45.608C142.543 45.322 141.929 45.073 140.818 44.586C146.559 42.289 147.325 42.538 153.833 47.982C155.761 46.562 157.793 45.211 159.656 43.656C161.75 41.91 160.985 35.896 158.473 33.227C156.257 30.872 154.074 28.487 151.875 26.115C151.901 25.369 151.927 24.624 151.952 23.878C163.898 29.159 170.161 37.088 160.805 49.622C159.144 51.847 157.442 54.084 156.131 56.516C154.472 59.598 154.08 62.066 157.835 64.828C162.003 67.892 164.711 72.486 165.091 78.266C165.266 80.931 166.779 83.92 168.574 85.991C174.422 92.734 177.581 99.911 175.104 109.025C174.41 111.583 174.999 114.488 174.999 118.511C177.478 116.928 179.069 116.242 180.235 115.116C190.921 104.803 203.525 97.765 217.486 92.976C218.868 92.502 220.203 91.829 221.465 91.087C224.903 89.065 226.7 86.802 224.333 82.429C223.181 80.301 223.758 77.186 223.729 74.515C223.696 71.506 223.901 68.495 223.929 65.486C223.959 62.125 224.342 58.691 223.798 55.418C222.736 49.022 221.406 42.639 219.658 36.398C218.51 32.295 216.365 28.48 214.826 24.474C214.504 23.634 214.88 22.527 214.933 21.541C215.895 21.835 217.106 21.867 217.761 22.486C218.679 23.353 219.418 24.578 219.826 25.788C222.564 33.901 225.23 42.039 227.815 50.201C228.152 51.266 227.868 52.52 227.92 53.684C228.244 60.903 228.583 68.122 229.985 75.62C230.642 73.794 231.094 71.857 232.005 70.168C233.37 67.634 234.499 64.249 236.718 63.042C242.062 60.133 248.063 58.459 253.63 55.918C256.3 54.699 258.588 52.643 261.054 50.973C261.604 51.518 262.148 52.055 262.693 52.593C262.778 53.021 262.863 53.447 262.949 53.875C263.461 54.749 263.973 55.623 264.486 56.497C259.507 58.386 254.628 60.62 249.528 62.092C238.91 65.158 233.413 72.362 232.041 82.925C230.87 91.94 225.267 96.549 217.248 99.338C212.718 100.914 208.371 103.013 202.656 105.417C206.81 107.717 209.772 109.352 212.729 110.996C219.096 114.536 220.333 117.82 218.031 125.042C217.288 125.042 216.544 125.042 215.801 125.042C215.008 119.271 212.881 114.653 206.86 112.324C202.375 110.589 198.061 109.962 194.261 112.992C187.97 118.01 181.692 123.135 176.044 128.844C168.75 136.218 170.789 145.486 172.13 154.461C173.144 161.245 173.814 168.085 174.999 174.836C175.52 177.806 176.245 181.205 178.088 183.389C183.578 189.893 189.631 195.926 195.557 202.055C196.644 203.179 198.166 203.883 200.357 205.371C199.387 201.206 198.349 198.097 197.999 194.912C197.489 190.289 197.709 185.686 200.631 181.641C203.247 178.019 203.1 174.703 200.064 171.076C196.974 167.385 194.575 163.115 192.365 158.09C193.57 158.578 195.094 158.756 195.926 159.61C199.496 163.276 203.147 166.931 206.171 171.03C207.476 172.798 208.268 175.906 207.677 177.934C205.634 184.943 206.1 191.709 206.335 198.934C206.643 208.366 209.664 216.075 213.928 223.753C217.608 230.379 218.227 236.939 217.226 244.547C215.729 255.92 218.989 266.877 223.696 277.375C225.589 281.594 226.533 286.237 227.93 290.681C228.288 291.82 228.73 292.933 229.293 294.504C234.392 290.872 233.315 285.559 234.716 281.293C237.146 273.894 238.993 266.3 241.517 258.936C243.538 253.04 245.435 247.492 244.167 240.902C243.264 236.212 244.694 231.098 244.878 226.167C245.04 221.814 245.176 217.433 244.854 213.099C244.479 208.049 243.668 203.026 242.915 198.01C241.606 189.298 240.223 180.597 238.798 171.904C238.59 170.633 238.359 168.912 237.495 168.281C233.3 165.221 235.844 161.156 236.244 157.907C236.83 153.15 238.226 148.144 240.654 144.063C242.951 140.2 246.501 136.356 250.44 134.374C255.797 131.679 256.817 126.755 258.531 122.386C261.064 115.927 263.152 109.106 264.09 102.254C265.311 93.335 272.132 87.922 275.825 80.617C275.896 80.475 276.034 80.338 276.176 80.266C284.409 76.133 292.646 72.008 300.882 67.882C300.908 68.627 300.935 69.372 300.961 70.117C300.382 70.582 299.803 71.047 298.67 71.956C306.611 70.141 313.748 68.511 320.884 66.88C320.909 67.626 320.935 68.371 320.961 69.117C310.667 72.384 300.378 75.666 290.077 78.912C283.472 80.994 278.584 84.48 275.026 91.031C271.409 97.691 267.797 103.908 268.425 112.252C274.638 108.301 280.731 104.597 286.598 100.563C287.941 99.64 288.765 97.678 289.376 96.027C291.703 89.738 297.707 90.122 302.194 87.763C302.52 88.229 302.845 88.695 303.172 89.16C299.37 91.983 295.569 94.806 291.769 97.629C291.992 97.99 292.214 98.353 292.438 98.714C294.243 98.942 296.047 99.169 298.769 99.513C291.172 103.885 284.678 108.214 277.689 111.483C270.449 114.869 265.521 120.115 263.303 127.424C261.195 134.374 256.629 138.866 251.167 142.934C249.824 143.934 248.633 145.136 247.897 146.94C257.749 144.722 267.599 142.504 277.451 140.287C277.657 140.777 277.862 141.266 278.068 141.757C277.762 142.415 277.614 143.484 277.129 143.668C270.501 146.184 264.002 149.606 257.126 150.769C245.921 152.664 240.737 160.868 244.719 171.591C247.883 180.112 251.389 188.784 252.623 197.683C254.632 212.17 254.916 226.897 255.906 241.524C255.992 242.783 255.918 244.053 255.918 246.383C263.45 238.127 269.84 230.445 274.031 221.067C275.34 218.14 277.622 215.647 279.479 212.971C279.76 212.566 280.306 212.305 280.488 211.875C283.304 205.198 286.549 198.655 288.758 191.78C291.987 181.73 294.703 171.496 297.145 161.222C298.041 157.453 298.226 153.219 297.498 149.435C296.522 144.371 296.246 140.089 300.799 136.585C306.677 132.063 308.916 126.185 309.228 118.573C309.482 112.352 310.589 105.811 316.195 100.802C319.191 98.125 320.448 93.209 321.816 89.08C323.514 83.956 324.514 78.601 325.99 72.644C330.449 79.729 326.319 85.959 324.45 92.245C324.824 92.48 325.197 92.715 325.571 92.949C328.391 91.146 331.211 89.343 334.273 87.386C336.351 90.835 333.969 93.118 331.158 94.877C325.114 98.657 319.145 102.472 316.127 109.315C315.162 111.503 314.272 113.845 313.995 116.193C313.352 121.647 313.105 127.149 312.63 133.551C315.612 131.697 318.538 130.154 321.138 128.179C323.241 126.582 325.035 124.545 326.816 122.567C330.629 118.327 335.481 117.494 340.81 118.045C341.217 118.045 341.624 118.045 342.032 118.045C344.616 117.682 347.231 117.463 349.78 116.926C355.873 115.643 357.56 108.447 353.113 102.766C352.195 101.594 351.09 100.546 349.964 99.564C345.407 95.589 344.128 90.564 345.413 83.169C348.267 90.082 349.503 97.006 357.534 99.048C358.663 94.526 361.203 89.775 360.51 85.554C359.853 81.549 355.81 78.101 353.19 74.313C357.83 74.27 363.745 79.733 363.843 84.4C363.908 87.484 363.467 90.621 362.896 93.667C361.401 101.634 359.617 109.547 358.139 117.517C357.496 120.985 355.609 121.981 352.274 122.087C347.512 122.239 342.749 122.823 338.031 123.524C336.534 123.746 335.022 124.728 333.785 125.702C328.498 129.864 323.408 134.28 318.064 138.365C310.291 144.307 308.127 153.129 306.048 161.835C304.667 167.619 304.36 173.659 303.433 180.64C306.511 178.966 309.147 177.238 312.006 176.042C317.211 173.867 322.401 170.999 327.858 170.204C344.652 167.758 360.394 163.382 372.816 150.954C373.293 151.507 373.769 152.059 374.245 152.612C372.961 154.656 371.678 156.699 370.534 158.519C374.056 158.519 377.639 158.519 382.89 158.519C381.112 160.105 380.152 161.65 378.885 161.967C374.003 163.188 369.011 163.961 364.083 165.014C361.706 165.522 359.375 166.254 357.035 166.929C345.35 170.298 333.661 173.656 321.995 177.086C320.038 177.661 318.183 178.576 317.532 178.835C327.074 178.578 337.731 178.245 348.391 178.05C350.142 178.018 351.973 178.376 353.648 178.922C359.623 180.866 365.673 182.674 371.428 185.152C373.907 186.218 376.36 188.433 377.728 190.768C380.932 196.24 383.521 202.076 386.247 207.819C386.762 208.904 386.755 210.237 386.988 211.456C386.577 211.794 386.165 212.132 385.754 212.471C384.529 211.455 382.888 210.677 382.153 209.384C379.122 204.04 376.928 198.115 373.27 193.279C371.454 190.878 367.205 190.155 363.926 189.061C360.124 187.791 356.177 186.96 352.299 185.914C351.381 185.666 350.488 185.045 349.587 185.049C334.137 185.127 318.633 184.208 303.669 189.803C299.883 191.219 298.907 193.492 297.871 196.739C293.562 210.235 288.779 223.526 279.702 234.777C277.556 237.437 275.879 240.468 273.851 243.23C271.333 246.657 269.094 250.443 265.991 253.251C259.752 258.897 260.509 266.948 258.068 273.881C258.01 274.045 259.201 274.649 259.809 275.048C260.216 275.048 260.623 275.048 261.031 275.048C265.944 274.7 270.886 274.571 275.765 273.949C281.403 273.229 287.086 272.44 292.542 270.934C294.757 270.323 296.444 267.758 298.325 266.033C298.658 265.726 298.683 265.105 298.985 264.741C304.594 257.972 310.608 251.498 315.723 244.378C319.693 238.854 323.167 232.776 325.69 226.476C327.609 221.685 323.343 215.446 317.902 212.436C315.464 211.088 313.235 209.363 310.912 207.808C311.308 207.119 311.704 206.429 312.1 205.74C316.669 208.177 321.239 210.612 325.808 213.049C326.215 213.049 326.622 213.049 327.03 213.049C327.621 212.354 328.213 211.659 328.803 210.965C329.548 210.991 330.293 211.018 331.038 211.044C331.007 213.879 330.259 216.947 331.089 219.503C332.98 225.321 331.355 229.995 327.921 234.517C327.066 235.642 326.5 236.987 326.437 239.197C329.397 237.834 332.32 236.38 335.329 235.133C338.126 233.974 340.948 232.725 343.883 232.087C346.839 231.444 348.391 230.075 348.958 227.088C349.73 223.014 350.839 219.004 351.804 214.966C352.55 214.991 353.296 215.018 354.041 215.043C354.041 218.181 354.041 221.317 354.041 224.897C361.726 223.444 362.688 230.453 366.712 233.672C366.351 234.198 365.989 234.725 365.628 235.25C363.42 233.699 361.095 232.289 359.029 230.566C355.286 227.445 353.981 227.748 352.201 232.301C351.696 233.593 351.063 235.417 350.029 235.824C342.641 238.724 335.108 241.254 327.684 244.068C325.961 244.72 323.94 245.657 322.992 247.084C319.74 251.977 316.903 257.146 314.028 262.007C320.755 262.007 327.101 262.007 333.448 262.007C334.781 262.007 336.268 261.62 337.423 262.074C345.884 265.405 350.839 259.857 356.414 255.148C361.145 251.152 366.247 247.512 371.527 244.274C376.315 241.337 379.246 234.086 377.229 228.679C375.929 225.195 374.936 221.597 373.806 218.05C374.193 217.666 374.579 217.282 374.966 216.898C381.259 223.288 381.459 231.22 380.774 239.431C380.282 245.318 376.77 248.342 371.444 249.766C364.957 251.5 360.585 255.758 357.748 261.6C355.209 266.829 351.022 268.865 345.489 269.022C335.719 269.298 325.898 269.161 316.208 270.21C310.835 270.791 305.124 272.513 300.551 275.324C291.514 280.882 281.776 283.639 271.527 284.943C261.423 286.228 255.767 290.54 255.164 300.508C254.613 309.622 252.895 318.177 250.172 326.88C247.663 334.896 247.891 343.734 245.765 351.912C243.034 362.413 238.673 372.301 230.456 380.023C221.139 388.782 212.182 397.929 202.72 406.525C199.205 409.718 194.704 411.827 190.654 414.429C190.8 414.843 190.946 415.257 191.092 415.671C192.048 415.608 193.198 415.867 193.932 415.43C202.046 410.595 211.07 410.78 220.069 409.714C230.211 408.513 240.519 407.192 248.457 398.403C255.101 391.047 263.531 385.217 271.537 379.201C280.979 372.106 287.031 358.239 283.705 347.229C281.384 339.544 282.654 333.059 287.411 327.188C292.735 320.618 294.053 313.834 291.461 305.66C290.276 301.927 291.26 297.507 292.333 292.741C293.26 294.341 294.607 295.837 295.033 297.56C296.203 302.289 297.17 307.088 297.879 311.909C298.944 319.149 296.554 325.422 292.346 331.312C289.677 335.049 287.868 339.148 290.74 343.991C291.919 345.98 291.827 348.722 292.342 351.264C297.566 347.611 302.911 343.78 308.358 340.099C311.739 337.814 315.217 335.656 318.776 333.662C319.835 333.069 321.382 332.87 322.589 333.1C328.736 334.275 331.833 332.619 333.89 326.106C334.959 322.719 335.081 319.044 335.963 315.584C337.43 309.828 339.742 304.51 346.045 301.449C345.009 304.618 343.903 307.765 342.959 310.962C342.182 313.591 341.391 316.244 340.966 318.943C340.152 324.126 339.591 329.347 338.834 335.261C343.578 334.833 349.6 334.703 355.407 333.523C357.21 333.157 359.428 330.085 359.729 328.003C360.523 322.521 363.126 319.015 369.257 316.539C368.18 320.203 367.403 323.037 366.497 325.83C366.145 326.912 365.395 327.86 365.004 328.934C360.969 339.991 360.979 339.939 349.567 340.046C347.13 340.069 344.706 340.708 342.265 340.972C337.431 341.494 332.841 341.858 327.792 340.476C324.358 339.536 319.565 341.813 315.941 343.718C310.179 346.746 304.853 350.614 299.406 354.223C293.9 357.87 292.525 363.788 292.058 369.668C291.597 375.468 289.378 380.167 285.363 383.984C277.454 391.503 269.309 398.775 261.273 406.162C260.551 406.826 259.915 407.583 259.585 409.009C263.731 407.645 267.911 406.374 272.016 404.896C278.403 402.594 284.826 402.258 291.41 403.921C292.663 404.237 294.068 404.042 295.395 403.958C305.424 403.323 315.488 401.844 325.465 402.299C331.752 402.586 338.041 405.406 344.092 407.714C353.223 411.194 354.721 410.381 360.85 402.643C369.171 392.136 378.342 382.301 387.197 372.22C394.149 364.306 400.841 356.216 404.81 346.297C406.572 341.895 403.732 338.453 401.853 335.009C397.863 327.694 393.995 320.603 392.435 312.049C391.565 307.274 387.026 302.714 383.189 299.055C378.91 294.973 377.129 291.177 378.79 285.23C380.713 278.346 381.599 271.175 382.983 264.138C383.096 263.561 383.581 263.057 384.294 261.826C386.143 267.964 386.964 273.434 384.972 278.915C381.826 287.573 385.361 293.937 391.256 299.953C396.081 304.877 399.307 310.319 400.452 317.823C401.418 324.144 406.55 329.829 410.048 336.178C416.201 329.585 416.704 322.446 415.816 314.326C414.969 306.585 411.163 301.353 405.887 296.307C401.638 292.244 399.647 287.056 400.867 280.903C401.628 277.069 401.916 273.141 403.347 269.073C403.87 272.892 405.588 277.031 404.672 280.468C402.636 288.113 407.031 291.28 413.111 295.029C413.111 290.068 413.111 285.722 413.111 280.601C418.242 283.275 416.703 287.209 416.567 290.905C416.457 293.899 416.057 297.641 417.568 299.813C426.21 312.24 424.246 325.191 418.516 337.296C412.245 350.545 404.943 363.401 394.496 374.223C390.517 378.346 388.46 384.276 385.228 389.185C383.054 392.487 380.418 395.497 377.874 398.54C375.683 401.161 373.328 403.644 371.221 405.994C381.308 411.517 390.362 406.927 399.789 404.835C404.307 403.833 409.401 405.109 414.182 405.749C416.555 406.066 418.77 407.419 421.123 408.059C432.682 411.199 437.366 419.941 439.991 430.6C440.545 432.851 441.688 435.889 443.448 436.75C450.958 440.426 448.54 446.962 448.892 452.793C449.101 456.243 449.398 459.711 449.998 463.109C450.61 466.571 451.644 469.959 452.493 473.38C451.922 473.617 451.349 473.856 450.777 474.094C449.939 472.653 449.2 471.141 448.234 469.79C447.276 468.449 446.13 466.32 444.991 466.27C443.674 466.211 442.106 467.887 440.946 469.097C439.324 470.788 437.977 472.745 436.278 473.996C438.158 468.782 440.357 463.658 441.829 458.332C443.357 452.798 444.005 447.096 439.517 442.016C436.948 451.993 422.449 462.303 412.184 457.364C412.832 457.239 413.476 457.038 414.128 457.001C420.321 456.647 424.251 452.037 428.82 448.834C430.582 447.599 431.206 444.639 432.173 442.389C434.486 437.005 434.232 431.948 429.95 427.521C429.72 427.283 429.33 427.042 429.308 426.78C428.655 418.663 421.698 417.404 416.126 414.688C409.783 411.596 403.648 412.686 397.806 416.051C391.618 419.615 385.283 418.946 378.94 416.89C373.427 415.105 368.119 415.601 363.245 418.392C357.593 421.629 352.453 421.074 346.337 419.161C340.227 417.249 333.392 417.448 326.856 417.157C320.339 416.867 313.796 417.029 307.27 417.197C305.78 417.235 303.791 417.7 302.989 418.72C302.279 419.623 302.387 421.877 303.049 422.993C304.204 424.943 305.804 426.857 307.667 428.125C318.068 435.201 325.766 444.524 332.813 454.91C337.098 461.225 344.238 465.557 349.858 471.024C361.027 481.887 374.35 479.203 387.283 476.643C395.896 474.939 404.34 473.521 413.012 475.094C415.179 475.487 417.345 476.627 419.194 477.89C424.997 481.855 430.727 485.936 436.332 490.176C440.492 493.323 442.675 496.946 441.271 502.894C439.917 508.634 440.452 514.819 440.156 520.809C439.525 520.893 438.894 520.977 438.263 521.061C437.483 518.251 436.493 515.479 435.979 512.622C435.399 509.4 435.351 506.087 434.879 502.841C434.391 499.472 433.086 496.709 429.58 495.198C426.025 493.665 422.691 491.621 419.208 489.773C418.783 493.686 418.403 497.722 417.859 501.737C417.754 502.513 417.005 503.202 416.554 503.931C416.01 503.288 415.15 502.722 414.971 501.99C413.542 496.144 412.193 490.278 410.927 484.394C410.328 481.612 408.739 480.473 406.011 481.015C401.214 481.966 396.463 483.191 391.638 483.955C383.228 485.287 374.778 486.358 365.953 487.593C368.043 493.662 373.359 496.998 378.141 500.423C381.721 502.988 386.286 504.164 390.379 506.031C393.744 507.566 397.491 508.673 400.296 510.93C404.445 514.269 408.719 513.115 413.188 512.962C415.911 512.869 419.539 512.8 421.255 514.367C428.154 520.67 434.542 527.544 440.968 534.349C444.584 538.18 444.213 542.935 442.961 548.16C440.246 540.033 434.126 535.418 426.541 531.332C427.286 534.386 427.938 537.062 428.592 539.74C428.258 539.932 427.924 540.126 427.59 540.318C426.387 538.568 424.466 536.958 424.095 535.046C421.796 523.203 418.025 523.741 409.597 523.991C407.625 524.05 405.65 524 402.876 524C406.293 528.311 409.131 532.243 412.335 535.85C417.174 541.297 422.058 546.74 427.329 551.757C430.799 555.059 431.273 558.816 430.822 563.054C430.233 568.591 429.293 574.104 428.992 579.655C428.709 584.86 426.54 588.25 419.955 590.599C426.198 571.474 423.643 555.197 408.548 542.354C408.08 542.083 407.612 541.807 407.146 541.531C407.375 542.045 407.604 542.558 407.834 543.072C408.813 547.959 411.19 552.737 408.92 557.872C408.158 559.595 407.486 561.356 406.611 563.497C402.167 560.613 404.492 556.785 403.984 553.687C403.453 550.448 403.788 546.998 402.856 543.907C400.893 537.399 398.89 530.792 395.83 524.77C394.192 521.549 390.484 519.253 387.434 516.899C372.659 505.493 357.788 494.208 342.953 482.879C342.547 481.719 342.14 480.558 341.733 479.398C341.027 480.052 340.322 480.706 339.616 481.36C340.644 482.784 341.673 484.208 342.7 485.631C343.442 489.118 344.18 492.606 344.929 496.092C345.067 496.729 345.128 497.42 345.427 497.978C349.311 505.236 352.394 513.123 357.374 519.535C362.438 526.057 370.845 527.776 378.857 528.938C381.586 529.334 384.422 529 387.603 529C385.625 533.395 381.791 533.677 378.407 533.867C375.064 534.056 371.662 533.193 368.286 532.792C367.906 533.326 367.526 533.86 367.146 534.396C369.699 536.912 372.165 539.525 374.833 541.913C376.777 543.651 378.993 545.085 381.079 546.666C384.986 549.628 385.844 553.562 386.058 558.391C386.856 576.376 391.764 592.977 402.844 607.686C407.749 614.199 414.038 620.515 414.078 629.544C414.102 634.836 413.259 640.138 412.698 645.424C412.178 650.309 411.63 655.195 410.884 660.049C410.217 664.383 410.1 669.079 408.25 672.893C405.136 679.316 403.465 685.732 403.814 692.828C403.878 694.129 402.622 695.496 401.974 696.832C401.288 695.534 399.959 694.206 400.018 692.943C400.518 682.274 397.23 671.263 402.778 661.005C403.262 660.109 402.842 658.724 402.842 657.207C398.363 660.308 398.092 667.471 390.258 668.196C391.485 665.688 392.109 663.797 393.215 662.249C400.367 652.234 404.965 641.493 404.008 628.811C403.765 625.585 403.44 622.916 401.086 620.319C393.638 612.099 389.219 602.057 384.873 592C384.148 590.324 382.894 588.878 381.884 587.325C381.449 587.459 381.016 587.593 380.581 587.726C380.979 592.736 381.287 597.754 381.8 602.752C382.576 610.329 382.337 617.747 376.629 623.53C370.26 629.984 369.9 638.519 367.958 646.509C366.115 654.093 365.413 662.059 362.727 669.308C359.286 678.593 361.707 686.677 365.364 694.852C367.707 700.089 370.168 705.309 373.035 710.271C380.648 723.45 381.058 737.162 377.204 751.524C374.757 760.641 373.175 769.989 370.846 779.142C370.215 781.622 368.282 783.771 366.946 786.072C366.385 785.925 365.826 785.777 365.265 785.63C365.159 783.266 364.437 780.729 365.046 778.566C369.043 764.384 368.522 749.875 369.209 735.378C369.599 727.152 367.935 720.305 363.329 713.94C357.958 706.514 356.25 697.937 354.893 689.181C354.627 687.462 353.954 685.806 353.335 683.662C352.409 684.41 351.514 684.77 351.269 685.389C348.402 692.612 346.035 700.064 342.724 707.072C339.47 713.963 340.975 720.815 342.312 727.391C344.742 739.34 343.662 749.961 335.16 759.342C331.412 763.479 328.246 768.144 324.816 772.569C324.097 772.357 323.379 772.146 322.662 771.935C322.662 770.152 322.134 768.157 322.754 766.623C325.385 760.113 328.037 753.573 331.308 747.373C333.767 742.713 335.247 738.168 333.896 732.996C328.837 713.631 333.5 695.766 343.446 679.307C350.41 667.783 354.658 655.656 357.91 642.688C360.781 631.239 365.742 620.265 370.321 609.307C375.278 597.444 376.717 585.783 371.3 573.681C369.72 570.153 369.27 566.128 367.799 562.537C366.805 560.111 365.297 557.645 363.382 555.894C356.367 549.482 350.103 542.488 347.153 533.34C344.256 524.351 340.415 516.028 334.288 508.77C333.358 507.667 332.936 505.771 332.987 504.266C333.293 495.12 330.772 486.937 326.091 479.059C323.299 474.362 321.817 468.878 319.81 463.724C315.755 453.305 309.591 444.431 300.85 437.374C298.031 435.098 295.044 432.9 292.713 430.172C286.972 423.452 279.67 423.634 271.892 424.433C262.278 425.421 253.847 429.768 244.929 432.852C236.527 435.757 227.581 437.138 218.828 438.97C206.975 441.451 194.086 442.613 187.12 454.118C181.157 463.965 176.336 474.63 172.107 485.364C167.71 496.526 165.734 508.376 165.836 520.508C165.859 523.386 165.431 526.556 164.197 529.102C160.653 536.416 162.145 544.009 162.209 551.54C162.211 551.75 162.681 551.955 162.932 552.162C159.147 557.675 155.443 563.245 151.559 568.686C143.913 579.401 136.167 590.045 128.415 600.784C127.711 600.123 127.391 599.941 127.244 599.667C122.262 590.381 117.193 581.14 112.355 571.779C106.77 560.964 101.385 550.041 95.91 539.164ZM338.554 477.359C338.087 477.084 337.619 476.808 337.153 476.532C337.382 477.046 337.611 477.559 337.841 478.073C338.231 478.824 338.62 479.575 339.01 480.326C339.345 480.13 339.679 479.933 340.014 479.737C339.527 478.942 339.041 478.147 338.554 477.359ZM246.668 148.414C246.581 148.163 246.493 147.909 246.405 147.656C246.137 147.785 245.734 147.855 245.643 148.061C245.565 148.241 245.84 148.575 245.959 148.841C246.191 148.702 246.422 148.563 246.668 148.414ZM356.756 99.429C356.647 99.304 356.538 99.179 356.429 99.053C356.316 99.174 356.115 99.293 356.112 99.415C356.11 99.538 356.306 99.665 356.415 99.79C356.528 99.669 356.642 99.549 356.756 99.429Z" transform="translate(505.121)" fill="#AE804A"/>
<path fill-rule="evenodd" clip-rule="evenodd" d="M458.54 441.016C464.015 451.893 469.399 462.816 474.989 473.633C479.827 482.993 484.895 492.235 489.878 501.521C490.024 501.795 490.345 501.977 491.049 502.638C498.801 491.9 506.546 481.255 514.193 470.54C518.077 465.099 521.781 459.528 525.566 454.016C532.22 445.017 538.947 436.071 545.514 427.008C559.916 407.137 574.25 387.216 588.585 367.296C592.532 361.812 596.385 356.258 600.946 349.791C626.258 434.692 651.278 518.615 676.429 602.978C667.583 605.877 658.908 608.819 650.168 611.562C638.912 615.095 627.578 618.383 616.325 621.927C587.356 631.049 558.422 640.284 529.456 649.417C506.646 656.608 483.806 663.698 460.987 670.859C431.853 680.004 402.731 689.183 373.598 698.331C362.964 701.67 352.348 705.075 341.646 708.183C339.423 708.829 336.676 708.875 334.476 708.203C315.478 702.389 296.553 696.334 277.599 690.374C248.93 681.359 220.263 672.341 191.581 663.367C168.447 656.13 145.272 649.019 122.152 641.739C93.1806 632.617 64.2506 623.37 35.2966 614.196C24.3626 610.731 13.4396 607.225 2.44759 603.953C-0.0874074 603.198 -0.420395 602.656 0.397605 599.955C9.05661 571.351 17.4256 542.658 25.9666 514.018C35.3856 482.432 44.9406 450.887 54.3616 419.302C60.8256 397.633 67.1586 375.925 73.5726 354.241C73.8856 353.18 74.4206 352.185 75.1096 350.546C78.6376 355.274 82.0476 359.604 85.2036 364.111C100.379 385.786 115.425 407.55 130.645 429.192C136.048 436.875 141.818 444.298 147.42 451.84C153.095 460.07 158.753 468.313 164.451 476.527C170.523 485.279 176.635 494.004 182.78 502.814C183.483 502.195 183.992 501.941 184.204 501.533C193.947 482.8 203.667 464.054 213.37 445.299C213.59 444.873 213.581 444.329 213.679 443.841C219.952 431.963 226.269 420.109 232.488 408.203C242.389 389.247 252.226 370.257 262.246 350.981C243.694 350.981 225.436 350.981 206.726 350.981C213.721 337.223 220.537 323.821 227.635 309.86C203.945 309.86 180.906 309.86 156.471 309.86C169.9 290.895 182.692 272.831 195.954 254.1C183.351 254.1 171.243 254.1 158.122 254.1C218.216 169.033 277.671 84.869 337.623 0C342.782 7.407 347.547 14.295 352.358 21.148C370.462 46.937 388.632 72.679 406.678 98.508C426.485 126.858 446.153 155.304 465.933 183.671C479.773 203.517 493.691 223.308 507.598 243.107C509.911 246.401 512.349 249.609 515.307 253.646C502.559 253.646 490.72 253.646 477.681 253.646C491.082 272.663 503.83 290.752 517.066 309.535C493.351 309.535 470.24 309.535 446.439 309.535C453.44 323.603 460.065 336.915 466.979 350.808C448.214 350.808 430.168 350.808 411.461 350.808C419.237 365.939 426.696 380.521 434.22 395.069C441.749 409.629 449.337 424.159 456.922 438.689C457.359 439.521 457.997 440.244 458.54 441.016ZM15.0236 598.78C15.0966 599.082 15.1696 599.383 15.2436 599.684C16.0606 599.768 16.9216 599.713 17.6896 599.955C42.0936 607.611 66.4876 615.303 90.8876 622.975C112.336 629.718 133.791 636.44 155.241 643.176C191.148 654.454 227.067 665.694 262.955 677.033C284.24 683.759 305.408 690.868 326.783 697.286C331.359 698.66 335.765 701.804 341.267 699.912C351.278 696.472 361.464 693.542 371.563 690.353C400.459 681.231 429.333 672.041 458.243 662.963C481.251 655.738 504.314 648.69 527.325 641.474C558.729 631.627 590.11 621.705 621.496 611.798C634.405 607.723 647.301 603.603 660.544 599.396C659.724 598.682 659.399 598.163 658.982 598.071C632.387 592.254 605.756 586.597 579.192 580.648C552.004 574.56 524.91 568.059 497.699 562.081C493.802 561.225 489.082 561.258 485.435 562.669C476.002 566.318 466.915 570.882 457.765 575.237C439.299 584.026 420.882 592.92 402.373 601.804C380.911 576.899 359.471 552.02 337.863 526.947C315.291 551.624 292.766 576.249 270.335 600.772C241.774 587.827 213.677 575.035 185.492 562.437C183.477 561.537 180.711 561.54 178.484 562.015C160.482 565.864 142.519 569.899 124.556 573.929C94.9796 580.564 65.4096 587.226 35.8436 593.904C28.8916 595.474 21.9626 597.152 15.0236 598.78ZM483.556 237.853C434.713 168.082 386.262 98.871 337.58 29.331C288.371 99.001 239.52 168.164 190.296 237.853C195.506 237.853 199.851 238.157 204.119 237.72C206.143 237.513 208.695 236.395 209.858 234.832C216.938 225.322 223.701 215.575 230.544 205.89C243.757 187.185 256.905 168.433 270.17 149.764C286.733 126.452 303.373 103.194 320.01 79.934C325.813 71.82 331.704 63.769 337.61 55.615C344.728 65.457 351.658 74.884 358.424 84.426C374.396 106.948 390.343 129.488 406.201 152.091C425.409 179.469 444.454 206.962 463.798 234.243C465.139 236.134 468.277 237.343 470.748 237.702C474.663 238.27 478.723 237.853 483.556 237.853ZM318.37 241.798C273.078 241.798 228.159 241.798 182.633 241.798C183.551 240.236 184.116 239.1 184.837 238.073C195.064 223.491 205.269 208.893 215.564 194.358C238.424 162.082 261.384 129.875 284.204 97.568C298.811 76.887 313.219 56.066 327.764 35.341C330.815 30.994 334.076 26.794 337.699 21.908C389.139 95.405 440.04 168.129 491.641 241.854C445.214 241.854 400.221 241.854 355.479 241.854C356.613 249.327 361.27 250.032 367.564 249.994C412.05 249.725 456.54 249.851 501.028 249.851C502.774 249.851 504.521 249.851 507.17 249.851C450.381 168.736 394.179 88.458 337.606 7.65201C280.488 88.498 223.678 168.91 166.492 249.853C169.113 249.853 170.919 249.853 172.724 249.853C217.879 249.853 263.035 249.698 308.187 250.035C314.366 250.082 317.26 248.137 318.37 241.798ZM264.067 237.745C288.417 189.816 312.729 141.961 337.228 93.739C342.458 103.689 347.658 113.221 352.534 122.917C371.234 160.094 389.819 197.328 408.507 234.512C409.148 235.786 410.403 237.681 411.405 237.701C422.609 237.929 433.819 237.845 445.778 237.845C409.422 186.346 373.59 135.59 337.571 84.57C301.185 135.653 264.974 186.491 228.467 237.745C240.823 237.745 252.446 237.745 264.067 237.745ZM391.055 237.852C372.919 201.593 355.215 166.197 337.369 130.517C319.144 166.49 301.211 201.887 282.989 237.853C295.141 237.853 306.297 237.73 317.445 237.935C320.406 237.99 321.59 236.886 322.843 234.366C327.139 225.729 331.8 217.274 336.63 208.169C337.683 209.768 338.462 210.759 339.038 211.857C343.037 219.469 346.889 227.162 351.059 234.677C351.838 236.082 353.817 237.684 355.274 237.715C366.914 237.962 378.562 237.852 391.055 237.852ZM460.588 237.162C419.687 179.222 378.864 121.392 337.624 62.972C295.904 121.529 254.721 179.332 213.239 237.555C218.797 238.114 222.918 238.543 226.232 233.757C239.815 214.145 253.766 194.789 267.571 175.331C287.05 147.877 306.504 120.404 326.009 92.969C329.667 87.823 333.52 82.816 337.325 77.688C338.044 78.165 338.567 78.34 338.824 78.705C353.042 98.869 367.214 119.065 381.439 139.224C403.111 169.933 424.934 200.536 446.392 231.392C449.885 236.412 453.347 239.421 460.588 237.162ZM269.249 237.227C277.661 238.63 277.613 238.607 281.037 231.89C285.573 222.991 290.259 214.167 294.763 205.252C305.043 184.903 315.211 164.498 325.511 144.16C329.316 136.649 333.365 129.263 337.673 121.119C357.366 160.49 376.696 199.136 395.862 237.451C398.977 237.451 401.674 237.451 404.856 237.451C382.371 192.495 360.151 148.072 337.476 102.739C314.365 148.297 291.849 192.68 269.249 237.227ZM418.047 253.854C424.488 266.699 430.482 278.73 436.603 290.696C437.089 291.646 438.46 292.747 439.43 292.756C454.29 292.886 469.153 292.847 484.525 292.847C475.564 280.045 467.062 267.823 458.419 255.7C457.726 254.729 456.063 253.947 454.841 253.933C442.87 253.802 430.899 253.854 418.047 253.854ZM235.982 292.791C242.67 279.895 249.218 267.265 256.166 253.867C242.914 253.867 230.518 253.816 218.124 253.97C217.21 253.982 216.135 255.328 215.438 256.277C209.002 265.047 202.599 273.839 196.266 282.682C193.996 285.85 191.945 289.175 189.554 292.791C205.498 292.791 220.63 292.791 235.982 292.791ZM211.101 254.57C210.881 253.997 210.662 253.424 210.442 252.85C206.874 253.988 201.815 254.005 199.98 256.446C187.949 272.45 176.614 288.976 164.683 305.853C166.853 305.853 168.456 305.853 170.059 305.853C206.202 305.853 242.344 305.853 278.487 305.853C286.464 305.853 287.766 304.829 289.889 296.508C253.764 296.508 217.758 296.508 181.167 296.508C191.428 282.132 201.264 268.351 211.101 254.57ZM493.031 297.095C455.843 297.095 420.014 297.095 384.053 297.095C387.417 305.853 387.417 305.853 396.263 305.853C431.892 305.853 467.522 305.856 503.151 305.843C504.886 305.842 506.623 305.697 508.344 305.619C508.289 304.816 508.385 304.415 508.228 304.193C497.654 289.273 487.006 274.406 476.492 259.444C472.189 253.321 471.121 252.786 463.068 254.558C467.941 261.537 472.771 268.5 477.651 275.43C482.511 282.334 487.422 289.2 493.031 297.095ZM361.034 253.854C367.688 266.767 373.892 278.862 380.186 290.909C380.618 291.735 381.715 292.758 382.513 292.765C394.435 292.884 406.359 292.847 419.002 292.847C412.616 280.019 406.607 267.826 400.406 255.731C399.907 254.757 398.087 253.948 396.87 253.934C385.226 253.8 373.578 253.854 361.034 253.854ZM254.848 292.851C267.34 292.851 278.807 292.949 290.267 292.716C291.564 292.69 293.258 291.054 294.023 289.733C297.027 284.541 299.805 279.213 302.529 273.866C305.849 267.351 309.03 260.765 312.447 253.853C300.492 253.853 289.33 253.776 278.171 253.949C276.738 253.971 274.63 254.928 274.011 256.081C267.654 267.935 261.539 279.92 254.848 292.851ZM403.022 334.533C415.279 334.533 427.311 334.533 439.886 334.533C435.952 326.692 432.329 319.288 428.48 312.004C427.943 310.986 426.302 309.962 425.159 309.947C413.727 309.796 402.292 309.855 390.036 309.855C394.564 318.461 398.763 326.44 403.022 334.533ZM233.903 334.853C245.3 334.853 256.424 334.902 267.548 334.787C268.846 334.773 270.807 334.224 271.32 333.293C275.519 325.686 279.447 317.93 283.647 309.853C271.808 309.853 260.684 309.804 249.561 309.919C248.262 309.933 246.28 310.483 245.787 311.41C241.699 319.08 237.889 326.897 233.903 334.853ZM268.032 338.701C254.534 338.701 241.184 338.701 227.213 338.701C232.103 328.797 236.685 319.517 241.2 310.372C234.714 308.339 231.255 310.66 229.112 316.523C227.557 320.777 224.715 324.545 222.634 328.626C219.619 334.535 216.775 340.532 213.68 346.854C228.849 346.854 243.335 346.854 257.823 346.854C265.361 346.853 265.361 346.853 268.032 338.701ZM405.703 338.809C406.923 345.334 410.02 347.538 416.103 347.007C423.533 346.359 431.063 346.853 438.549 346.853C445.452 346.853 452.356 346.853 460.028 346.853C454.753 336.296 449.873 326.523 444.985 316.755C441.339 309.467 441.334 309.469 432.779 310.145C437.445 319.587 442.05 328.906 446.943 338.81C432.773 338.809 419.359 338.809 405.703 338.809ZM404.222 254.196C409.749 265.208 415.032 275.716 420.299 286.23C423.97 293.56 423.961 293.564 432.77 292.337C427.444 281.685 422.198 271.183 416.941 260.687C413.303 253.425 413.296 253.429 404.222 254.196ZM241.271 292.266C249.681 293.587 249.643 293.568 253.041 286.897C254.595 283.847 256.422 280.935 257.973 277.883C261.933 270.087 265.808 262.247 270.063 253.734C265.844 254.549 261.816 251.877 259.515 256.387C253.446 268.286 247.405 280.198 241.271 292.266Z" transform="translate(142.492 98.148)" fill="#322882"/>
<path fill-rule="evenodd" clip-rule="evenodd" d="M2.23499 15.105C1.48999 15.079 0.745 15.052 0 15.026C0.06 14.369 -0.0860156 13.595 0.208984 13.071C2.46998 9.058 4.257 5.033 0.559998 0.393997C1.312 0.262997 2.06399 0.131 2.81699 0C3.82399 3.168 4.83098 6.33699 5.99698 10.003C7.22998 9.13399 8.69398 8.10299 10.307 6.96799C9.75198 9.44499 9.75199 9.445 2.23499 15.105Z" transform="translate(833.929 195.933)" fill="#AE804A"/>
<path fill-rule="evenodd" clip-rule="evenodd" d="M11.36 15.1C10.615 15.126 9.87 15.153 9.125 15.179C6.083 13.014 3.041 10.848 0 8.683C0.34 8.177 0.680996 7.67 1.021 7.164C2.467 8.161 3.91299 9.158 5.44699 10.217C6.47999 6.618 7.435 3.289 8.38 0C9.45 5.429 10.405 10.265 11.36 15.1Z" transform="translate(111.799 195.859)" fill="#AE804A"/>
<path fill-rule="evenodd" clip-rule="evenodd" d="M1.53702 4.54297C1.02402 3.66897 0.512 2.79499 0 1.92099C3.494 1.36899 6.99 0.824969 10.483 0.262969C13.739 -0.261031 16.808 -0.51003 16.891 4.66397C11.635 1.14597 6.62102 4.40097 1.53702 4.54297Z" transform="translate(768.077 51.955)" fill="#AE804A"/>
<path fill-rule="evenodd" clip-rule="evenodd" d="M16.8597 1.9441C16.6207 2.8431 16.3807 3.74411 16.1427 4.64411C16.1427 4.64511 16.0667 4.6511 16.0667 4.6461C15.6377 4.4631 15.2087 4.28711 14.7787 4.10911C12.2167 3.76611 9.65874 3.19609 7.09074 3.15009C4.82174 3.10909 2.54174 3.65211 0.0237414 3.96711C-0.294259 -0.0588887 2.62973 -0.291902 5.94673 0.172098C9.59473 0.683098 13.2227 1.3471 16.8597 1.9441Z" transform="translate(172.151 51.9339)" fill="#AE804A"/>
<path fill-rule="evenodd" clip-rule="evenodd" d="M6.51599 11.552C5.76999 11.577 5.02399 11.604 4.27899 11.629C2.85199 7.931 1.426 4.23299 0 0.534988C0.408 0.356988 0.814999 0.179 1.224 0C4.11 3.258 6.22099 6.925 6.51599 11.552Z" transform="translate(93.6433 203.407)" fill="#AE804A"/>
<path fill-rule="evenodd" clip-rule="evenodd" d="M2.237 12.04C1.492 12.015 0.746 11.988 0 11.963C1.46 7.97601 2.919 3.987 4.379 0C5.08 0.263 5.782 0.525001 6.483 0.789001C5.068 4.539 3.652 8.28901 2.237 12.04Z" transform="translate(856.929 202.996)" fill="#AE804A"/>
<path fill-rule="evenodd" clip-rule="evenodd" d="M0.0789795 9.51501C0.0529795 8.77001 0.026 8.025 0 7.28C1.94 4.853 3.88098 2.426 5.82098 0C6.25198 0.341 6.68298 0.680996 7.11398 1.021C5.85298 4.637 4.33998 8.07301 0.0789795 9.51501Z" transform="translate(806.007 60.601)" fill="#AE804A"/>
<path fill-rule="evenodd" clip-rule="evenodd" d="M0 6.24736C1.803 1.45336 4.14702 -0.268627 9.95602 0.0333731C6.40402 2.88837 3.663 5.09236 0.923004 7.29436C0.615004 6.94536 0.308 6.59536 0 6.24736Z" transform="translate(783.292 135.643)" fill="#AE804A"/>
<path fill-rule="evenodd" clip-rule="evenodd" d="M1.42899 10.581C0.952986 10.028 0.477 9.476 0 8.923C0.804 5.948 1.606 2.975 2.409 0C2.897 0.104 3.38599 0.208012 3.87399 0.312012C4.56399 3.97301 3.34699 7.33299 1.42899 10.581Z" transform="translate(877.938 142.028)" fill="#AE804A"/>
<path fill-rule="evenodd" clip-rule="evenodd" d="M0 1.152C0.387 0.768 0.773004 0.384 1.16 0C2.651 2.226 4.14101 4.451 5.82901 6.971C1.64601 7.017 1.35 3.541 0 1.152Z" transform="translate(10.9962 466.957)" fill="#AE804A"/>
<path fill-rule="evenodd" clip-rule="evenodd" d="M0.0769958 4.121C0.0509958 3.375 0.025 2.63 0 1.884C1.512 1.256 3.02401 0.628 4.53601 0C4.78401 0.491 5.03099 0.981992 5.27899 1.47299C3.54499 2.35599 1.81 3.239 0.0769958 4.121Z" transform="translate(826.009 64.995)" fill="#AE804A"/>
<path fill-rule="evenodd" clip-rule="evenodd" d="M0 4.97302C1.088 3.31602 2.175 1.659 3.263 0C3.649 0.222 4.03399 0.442001 4.42099 0.664001C3.60399 2.431 2.78701 4.198 1.97101 5.966C1.31401 5.635 0.657 5.30402 0 4.97302Z" transform="translate(766.907 44.006)" fill="#AE804A"/>
<path fill-rule="evenodd" clip-rule="evenodd" d="M0.0770035 2.237C0.0510035 1.491 0.025 0.746 0 0C1.885 0 3.77001 0 5.65401 0C5.66101 0.287 5.669 0.573992 5.675 0.860992C3.809 1.31999 1.943 1.778 0.0770035 2.237Z" transform="translate(300.009 23.879)" fill="#AE804A"/>
<path fill-rule="evenodd" clip-rule="evenodd" d="M5.67601 0C5.65101 0.746 5.625 1.491 5.599 2.237C3.733 1.778 1.867 1.31999 0 0.860992C0.007 0.573992 0.0150114 0.287 0.0210114 0C1.90701 0 3.79101 0 5.67601 0Z" transform="translate(651.403 23.879)" fill="#AE804A"/>
<path fill-rule="evenodd" clip-rule="evenodd" d="M4.38101 4.89999C3.63501 4.92599 2.89 4.952 2.145 4.978C1.43 3.54 0.715 2.102 0 0.664001C0.388 0.443001 0.77501 0.222 1.16301 0C2.23601 1.634 3.30801 3.26699 4.38101 4.89999Z" transform="translate(185.778 44.059)" fill="#AE804A"/>
<path fill-rule="evenodd" clip-rule="evenodd" d="M0 3.062C0.963 2.041 1.92598 1.021 2.88898 0C3.19798 0.24 3.506 0.481 3.815 0.722C2.63 2.42 1.44499 4.118 0.260986 5.818C0.174986 4.901 0.088 3.981 0 3.062Z" transform="translate(109.007 479.819)" fill="#FEFEFE"/>
<path fill-rule="evenodd" clip-rule="evenodd" d="M3.08398 6.23301C2.05698 4.80901 1.028 3.385 0 1.962C0.706 1.308 1.411 0.654 2.117 0C2.523 1.16 2.93001 2.321 3.33701 3.481C3.25301 4.398 3.16798 5.31601 3.08398 6.23301Z" transform="translate(844.743 479.399)" fill="#FEFEFE"/>
<path fill-rule="evenodd" clip-rule="evenodd" d="M0 0C0.743 0 1.48701 0 2.23001 0C1.84401 1.466 1.45901 2.93298 1.07401 4.39798C0.826005 4.37698 0.57701 4.356 0.32901 4.336C0.21901 2.891 0.109 1.445 0 0Z" transform="translate(233.929 125.043)" fill="#AE804A"/>
<path fill-rule="evenodd" clip-rule="evenodd" d="M0 0C0.743 0 1.48698 0 2.22998 0C2.14998 1.43 2.06898 2.85799 1.98898 4.28799C1.76998 4.34899 1.551 4.40899 1.332 4.46899C0.888001 2.97999 0.444 1.489 0 0Z" transform="translate(720.929 125.043)" fill="#AE804A"/>
<path fill-rule="evenodd" clip-rule="evenodd" d="M0 4.05301C0.627 2.70101 1.25297 1.351 1.87997 0C2.30097 0.126 2.72197 0.251998 3.14297 0.378998C2.81497 1.583 2.488 2.788 2.16 3.992C1.439 4.013 0.72 4.03201 0 4.05301Z" transform="translate(75.7183 215.003)" fill="#AE804A"/>
<path fill-rule="evenodd" clip-rule="evenodd" d="M1.948 0C2.348 0.949 2.74899 1.89701 3.14999 2.84601C2.83599 3.04901 2.52098 3.25101 2.20798 3.45401C1.47198 2.31601 0.736 1.17902 0 0.0410156C0.649 0.0270156 1.299 0.014 1.948 0Z" transform="translate(138.929 134.002)" fill="#FEFEFE"/>
<path fill-rule="evenodd" clip-rule="evenodd" d="M1.534 1.661C1.147 2.046 0.760993 2.43 0.373993 2.813C0.248993 1.875 0.125 0.937 0 0C0.511 0.553 1.023 1.107 1.534 1.661Z" transform="translate(878.558 215.232)" fill="#AE804A"/>
<path fill-rule="evenodd" clip-rule="evenodd" d="M2.08798 0C2.64698 0.501 3.20498 1.00101 3.76398 1.50201C3.60598 1.76001 3.44898 2.01701 3.28998 2.27301C2.19298 1.80501 1.097 1.337 0 0.869995C0.696 0.579995 1.39198 0.29 2.08798 0Z" transform="translate(78.0763 156.964)" fill="#FEFEFE"/>
<path fill-rule="evenodd" clip-rule="evenodd" d="M0.725006 0C1.38101 0.331 2.03801 0.661981 2.69601 0.992981C2.34201 1.86598 1.98799 2.73998 1.63699 3.61398C1.09399 3.07698 0.55 2.54 0 1.995C0.24 1.325 0.482006 0.663 0.725006 0Z" transform="translate(766.182 48.979)" fill="#AE804A"/>
<path fill-rule="evenodd" clip-rule="evenodd" d="M0.888977 0C0.831977 1.017 0.774987 2.03299 0.717987 3.04999C0.548987 3.05199 0.379999 3.05299 0.210999 3.05499C0.140999 2.03799 0.07 1.02298 0 0.00598145C0.297 0.00398145 0.592977 0.002 0.888977 0Z" transform="translate(839.093 82.655)" fill="#AE804A"/>
<path fill-rule="evenodd" clip-rule="evenodd" d="M0 0.0610046C0.72 0.0400046 1.439 0.021 2.159 0C1.528 0.793 0.895984 1.58599 0.264984 2.37799C0.176984 1.60599 0.088 0.833005 0 0.0610046Z" transform="translate(75.7183 218.995)" fill="#AE804A"/>
<path fill-rule="evenodd" clip-rule="evenodd" d="M1.24799 0C0.831986 0 0.417 0 0 0C0.415 0 0.830986 0 1.24799 0Z" transform="translate(40.9213 334.999)" fill="#FEFEFE"/>
<path fill-rule="evenodd" clip-rule="evenodd" d="M0 0C0 0.406 0.00100708 0.813008 0.00100708 1.22101C7.08003e-06 0.814008 0 0.407 0 0Z" transform="translate(287.002 37.891)" fill="#AE804A"/>
<path fill-rule="evenodd" clip-rule="evenodd" d="M0.329994 0.634442C0.219994 0.514442 0.11 0.394449 0 0.273449C0.13 0.174449 0.266993 -0.0105305 0.386993 0.000469487C0.506993 0.0114695 0.609994 0.217452 0.719994 0.338452C0.589994 0.436452 0.459994 0.535442 0.329994 0.634442Z" transform="translate(311.094 43.2115)" fill="#AE804A"/>
<path fill-rule="evenodd" clip-rule="evenodd" d="M0.366013 0C0.482013 0.111 0.598012 0.222008 0.715012 0.333008C0.593012 0.437008 0.469006 0.626993 0.350006 0.623993C0.231006 0.619993 0.117 0.424995 0 0.313995C0.122 0.208995 0.244013 0.104 0.366013 0Z" transform="translate(645.265 43.188)" fill="#AE804A"/>
<path fill-rule="evenodd" clip-rule="evenodd" d="M1.22198 0C0.814985 0 0.408 0 0 0C0.408 0 0.814985 0 1.22198 0Z" transform="translate(764.933 275.043)" fill="#FEFEFE"/>
<path fill-rule="evenodd" clip-rule="evenodd" d="M0 0C0.43 0.178 0.85901 0.353987 1.28801 0.536987C0.85801 0.360987 0.429 0.181 0 0Z" transform="translate(186.929 56.043)" fill="#AE804A"/>
<path fill-rule="evenodd" clip-rule="evenodd" d="M0.329994 0.634442C0.219994 0.514442 0.11 0.394449 0 0.273449C0.13 0.174449 0.266993 -0.0105305 0.386993 0.000469487C0.506993 0.0114695 0.609994 0.217452 0.719994 0.338452C0.589994 0.436452 0.459994 0.535442 0.329994 0.634442Z" transform="translate(329.094 66.2115)" fill="#AE804A"/>
<path fill-rule="evenodd" clip-rule="evenodd" d="M0.712997 0.327254C0.584997 0.426254 0.451001 0.60725 0.332001 0.59825C0.213001 0.58925 0.109 0.387254 0 0.271254C0.127 0.172254 0.261997 -0.00774202 0.380997 0.000257977C0.499997 0.010258 0.602997 0.211254 0.712997 0.327254Z" transform="translate(627.27 66.2108)" fill="#AE804A"/>
<path fill-rule="evenodd" clip-rule="evenodd" d="M0.813019 0C0.542019 0.271 0.271 0.541988 0 0.812988C0.271 0.541988 0.541019 0.271 0.813019 0Z" transform="translate(92.0652 77.022)" fill="#FEFEFE"/>
<path fill-rule="evenodd" clip-rule="evenodd" d="M1.22198 0C0.814985 0 0.408 0 0 0C0.408 0 0.814985 0 1.22198 0Z" transform="translate(830.933 213.043)" fill="#FEFEFE"/>
<path fill-rule="evenodd" clip-rule="evenodd" d="M1.22198 0C0.814985 0 0.408 0 0 0C0.408 0 0.814985 0 1.22198 0Z" transform="translate(845.933 118.043)" fill="#FEFEFE"/>
<path fill-rule="evenodd" clip-rule="evenodd" d="M0.275383 0.720001C0.175383 0.591001 -0.00961052 0.454999 0.000389483 0.335999C0.0103895 0.215999 0.214374 0.111 0.334374 0C0.434374 0.129 0.620375 0.264995 0.610375 0.384995C0.600375 0.504995 0.395383 0.609001 0.275383 0.720001Z" transform="translate(816.253 205.228)" fill="#AE804A"/>
<path fill-rule="evenodd" clip-rule="evenodd" d="M0.271031 0.697006C0.187031 0.598006 -0.00296488 0.472005 3.51165e-05 0.352005C0.00403512 0.231005 0.202007 0.117 0.315007 0C0.419007 0.124 0.614016 0.254003 0.605016 0.369003C0.598016 0.487003 0.389031 0.591006 0.271031 0.697006Z" transform="translate(871.227 235.057)" fill="#AE804A"/>
<path fill-rule="evenodd" clip-rule="evenodd" d="M0.622301 0.382996C0.505301 0.492996 0.389318 0.604005 0.271318 0.714005C0.173318 0.586005 -0.00867824 0.452008 0.000321761 0.333008C0.00932176 0.214008 0.210318 0.11 0.327318 0C0.427318 0.128 0.525301 0.255996 0.622301 0.382996Z" transform="translate(140.235 205.227)" fill="#AE804A"/>
<path fill-rule="evenodd" clip-rule="evenodd" d="M0 1.94C0.342 1.294 0.683 0.647 1.024 0C2.884 0.653 4.745 1.30601 6.604 1.95801C6.495 2.41701 6.384 2.87602 6.274 3.33502C4.183 2.87002 2.092 2.405 0 1.94Z" transform="translate(444.068 52.894)" fill="#AE804A"/>
<path fill-rule="evenodd" clip-rule="evenodd" d="M5.674 0C6.014 0.647 6.354 1.29498 6.694 1.94098C4.612 2.46198 2.53 2.983 0.448997 3.504C0.298997 3.061 0.149 2.61799 0 2.17599C1.891 1.45099 3.783 0.725 5.674 0Z" transform="translate(506.322 52.893)" fill="#AE804A"/>
<path fill-rule="evenodd" clip-rule="evenodd" d="M0.50094 0C0.67694 0.252 0.983949 0.501 0.984949 0.75C0.984949 0.982 0.658946 1.21499 0.475946 1.44699C0.304946 1.17099 0.0379398 0.906983 0.000939819 0.613983C-0.0200602 0.436983 0.31594 0.214 0.50094 0Z" transform="translate(143.856 139.155)" fill="#FEFEFE"/>
<path fill-rule="evenodd" clip-rule="evenodd" d="M1.345 0.477587C1.133 0.655587 0.930996 0.940603 0.701996 0.962603C0.481996 0.984603 0.235 0.735578 0 0.605578C0.209 0.390578 0.399004 0.0335737 0.632004 0.00157365C0.845004 -0.0254264 1.104 0.301587 1.345 0.477587Z" transform="translate(205.328 147.844)" fill="#FEFEFE"/>
<path fill-rule="evenodd" clip-rule="evenodd" d="M0 0.802002C0.467 0.535002 0.933994 0.268 1.39999 0C1.16899 0.511 0.938001 1.021 0.707001 1.532C0.472001 1.289 0.236 1.046 0 0.802002Z" transform="translate(43.4203 541.539)" fill="#FEFEFE"/>
<path fill-rule="evenodd" clip-rule="evenodd" d="M0.645035 0.376007C0.531035 0.496007 0.417024 0.616 0.303024 0.737C0.195024 0.612 -0.00198489 0.485 1.51114e-05 0.362C0.00301511 0.24 0.204032 0.121 0.317032 0C0.427032 0.126 0.536035 0.251007 0.645035 0.376007Z" transform="translate(95.2322 99.053)" fill="#FEFEFE"/>
<path fill-rule="evenodd" clip-rule="evenodd" d="M0.716003 0C1.201 0.795 1.687 1.59 2.173 2.385C1.838 2.581 1.50401 2.778 1.16901 2.974C0.779006 2.223 0.39 1.472 0 0.721001C0.238 0.480001 0.477003 0.24 0.716003 0Z" transform="translate(842.961 477.352)" fill="#FEFEFE"/>
<path fill-rule="evenodd" clip-rule="evenodd" d="M1.03798 0.757019C0.79198 0.905019 0.559972 1.045 0.329972 1.185C0.210972 0.917998 -0.0650069 0.583999 0.0139931 0.404999C0.104993 0.198999 0.507987 0.129 0.775987 0C0.862987 0.252 0.95098 0.506019 1.03798 0.757019Z" transform="translate(750.751 147.657)" fill="#FEFEFE"/>
<path fill-rule="evenodd" clip-rule="evenodd" d="M0.687988 1.541C0.458988 1.027 0.23 0.514 0 0C0.467 0.276 0.935008 0.552002 1.40201 0.823002C1.16501 1.061 0.925988 1.301 0.687988 1.541Z" transform="translate(842.273 476.531)" fill="#FEFEFE"/>
<path fill-rule="evenodd" clip-rule="evenodd" d="M0.687988 1.541C0.458988 1.027 0.23 0.514 0 0C0.467 0.276 0.935008 0.551998 1.40201 0.822998C1.16501 1.061 0.925988 1.301 0.687988 1.541Z" transform="translate(912.273 541.531)" fill="#FEFEFE"/>
<path fill-rule="evenodd" clip-rule="evenodd" d="M0.645035 0.376007C0.531035 0.496007 0.417024 0.616 0.303024 0.737C0.195024 0.612 -0.00198489 0.485 1.51114e-05 0.362C0.00301511 0.24 0.204032 0.121 0.317032 0C0.427032 0.126 0.536035 0.251007 0.645035 0.376007Z" transform="translate(861.232 99.053)" fill="#FEFEFE"/>
<path fill-rule="evenodd" clip-rule="evenodd" d="M0 71.833C6.939 70.205 13.868 68.527 20.821 66.957C50.387 60.279 79.957 53.617 109.533 46.982C127.496 42.952 145.459 38.917 163.461 35.068C165.688 34.592 168.454 34.589 170.469 35.49C198.654 48.088 226.751 60.88 255.312 73.825C277.744 49.302 300.268 24.677 322.84 0C344.447 25.073 365.888 49.952 387.35 74.857C405.859 65.972 424.276 57.079 442.742 48.29C451.892 43.935 460.979 39.371 470.412 35.722C474.058 34.311 478.778 34.278 482.676 35.134C509.887 41.113 536.982 47.613 564.169 53.701C590.733 59.65 617.364 65.306 643.959 71.124C644.376 71.216 644.7 71.735 645.521 72.449C632.278 76.656 619.382 80.776 606.473 84.851C575.087 94.758 543.706 104.68 512.302 114.527C489.291 121.743 466.228 128.792 443.22 136.016C414.31 145.093 385.436 154.284 356.54 163.406C346.441 166.594 336.255 169.524 326.244 172.965C320.742 174.857 316.336 171.713 311.76 170.339C290.385 163.921 269.217 156.812 247.932 150.086C212.044 138.746 176.125 127.507 140.218 116.229C118.769 109.493 97.314 102.771 75.865 96.028C51.465 88.356 27.071 80.665 2.66699 73.008C1.89799 72.767 1.03798 72.821 0.220978 72.737C0.145978 72.435 0.073 72.135 0 71.833Z" transform="translate(157.515 625.095)" fill="#B4D8E4"/>
<path fill-rule="evenodd" clip-rule="evenodd" d="M151.878 234.144C150.768 240.483 147.874 242.427 141.695 242.38C96.543 242.043 51.387 242.198 6.23199 242.198C4.42599 242.198 2.621 242.198 0 242.198C57.186 161.256 113.996 80.844 171.112 0C227.685 80.807 283.887 161.084 340.676 242.199C338.028 242.199 336.28 242.199 334.534 242.199C290.046 242.199 245.556 242.073 201.07 242.342C194.776 242.38 190.119 241.675 188.985 234.202C233.727 234.202 278.72 234.202 325.147 234.202C273.545 160.476 222.645 87.753 171.205 14.256C167.582 19.142 164.321 23.342 161.27 27.689C146.725 48.414 132.318 69.235 117.71 89.916C94.891 122.223 71.931 154.43 49.07 186.706C38.775 201.241 28.57 215.839 18.343 230.421C17.622 231.447 17.057 232.583 16.139 234.146C61.667 234.144 106.586 234.144 151.878 234.144Z" transform="translate(308.983 105.802)" fill="#B4D8E4"/>
<path fill-rule="evenodd" clip-rule="evenodd" d="M247.348 174.192C240.107 176.452 236.645 173.442 233.153 168.421C211.695 137.565 189.872 106.962 168.2 76.253C153.974 56.095 139.803 35.899 125.585 15.734C125.328 15.37 124.805 15.194 124.086 14.717C120.28 19.845 116.428 24.853 112.77 29.998C93.264 57.434 73.811 84.906 54.332 112.36C40.527 131.818 26.576 151.173 12.993 170.786C9.679 175.572 5.557 175.142 0 174.584C41.482 116.36 82.665 58.558 124.386 0C165.625 58.422 206.447 116.251 247.348 174.192Z" transform="translate(355.731 161.118)" fill="#B4D8E4"/>
<path fill-rule="evenodd" clip-rule="evenodd" d="M0 134.487C22.6 89.94 45.116 45.557 68.228 0C90.903 45.333 113.123 89.756 135.608 134.712C132.425 134.712 129.729 134.712 126.614 134.712C107.448 96.397 88.118 57.751 68.425 18.38C64.116 26.524 60.068 33.91 56.263 41.421C45.963 61.759 35.795 82.164 25.515 102.513C21.011 111.428 16.326 120.251 11.789 129.151C8.365 135.867 8.412 135.89 0 134.487Z" transform="translate(411.74 200.888)" fill="#B4D8E4"/>
<path fill-rule="evenodd" clip-rule="evenodd" d="M46.418 1.72C36.581 15.501 26.745 29.282 16.484 43.658C53.075 43.658 89.081 43.658 125.206 43.658C123.083 51.979 121.78 53.003 113.804 53.003C77.661 53.003 41.519 53.003 5.376 53.003C3.773 53.003 2.17 53.003 0 53.003C11.931 36.126 23.266 19.6 35.297 3.596C37.132 1.156 42.191 1.138 45.759 0C45.978 0.573 46.198 1.147 46.418 1.72Z" transform="translate(307.174 350.998)" fill="#B4D8E4"/>
<path fill-rule="evenodd" clip-rule="evenodd" d="M108.978 43.4213C103.37 35.5253 98.458 28.6593 93.598 21.7573C88.718 14.8273 83.888 7.86326 79.015 0.885265C87.068 -0.886735 88.136 -0.351737 92.439 5.77126C102.954 20.7333 113.601 35.6003 124.175 50.5203C124.332 50.7423 124.237 51.1433 124.291 51.9463C122.569 52.0233 120.833 52.1693 119.098 52.1703C83.469 52.1833 47.839 52.1803 12.21 52.1803C3.364 52.1803 3.364 52.1803 0 43.4223C35.961 43.4213 71.789 43.4213 108.978 43.4213Z" transform="translate(526.544 351.822)" fill="#B4D8E4"/>
<path fill-rule="evenodd" clip-rule="evenodd" d="M54.352 29.053C51.681 37.205 51.681 37.205 44.143 37.205C29.656 37.205 15.169 37.205 0 37.205C3.095 30.884 5.939 24.887 8.954 18.977C11.034 14.897 13.877 11.128 15.432 6.87405C17.575 1.01105 21.034 -1.31095 27.52 0.723047C23.004 9.86905 18.422 19.148 13.533 29.052C27.504 29.053 40.853 29.053 54.352 29.053Z" transform="translate(356.171 407.796)" fill="#B4D8E4"/>
<path fill-rule="evenodd" clip-rule="evenodd" d="M0 28.9441C13.655 28.9441 27.069 28.9441 41.239 28.9441C36.345 19.0401 31.741 9.72107 27.075 0.279066C35.63 -0.396934 35.635 -0.398934 39.281 6.88907C44.17 16.6581 49.05 26.4311 54.326 36.9881C46.653 36.9881 39.75 36.9881 32.847 36.9881C25.361 36.9881 17.83 36.4941 10.401 37.1421C4.31799 37.6741 1.22 35.4701 0 28.9441Z" transform="translate(548.194 408.013)" fill="#B4D8E4"/>
<path fill-rule="evenodd" clip-rule="evenodd" d="M0 0.330717C9.074 -0.436283 9.081 -0.440286 12.719 6.82171C17.976 17.3177 23.222 27.8197 28.548 38.4717C19.739 39.6987 19.748 39.6947 16.077 32.3647C10.81 21.8497 5.527 11.3427 0 0.330717Z" transform="translate(546.713 352.013)" fill="#B4D8E4"/>
<path fill-rule="evenodd" clip-rule="evenodd" d="M0 38.5915C6.134 26.5235 12.175 14.6115 18.243 2.71251C20.544 -1.79849 24.572 0.87451 28.791 0.0595102C24.536 8.57351 20.661 16.4135 16.701 24.2085C15.15 27.2605 13.323 30.1725 11.769 33.2225C8.372 39.8935 8.41 39.9135 0 38.5915Z" transform="translate(383.762 351.822)" fill="#B4D8E4"/>
</svg>
